<?xml version="1.0" encoding="utf-8"?>
<!-- Generator: Adobe Illustrator 23.0.1, SVG Export Plug-In . SVG Version: 6.00 Build 0)  -->
<svg version="1.1" id="Camada_1" xmlns="http://www.w3.org/2000/svg" xmlns:xlink="http://www.w3.org/1999/xlink" x="0px" y="0px"
	 viewBox="0 0 512 512" style="enable-background:new 0 0 512 512;" xml:space="preserve">
<style type="text/css">
	.st0{fill:#0F222C;}
	.st1{fill:#E8BF7C;}
	.st2{fill:#D0A569;}
	.st3{fill:#AB7A45;}
	.st4{fill:#D0A56B;}
	.st5{fill:#986E3E;}
	.st6{fill:#A87944;}
	.st7{fill:#1D4259;}
	.st8{fill:#D79828;}
	.st9{fill:#F2F2F2;}
	.st10{fill:#D55A15;}
	.st11{fill:#222846;}
	.st12{fill:#CE3836;}
	.st13{fill:#FF524F;}
	.st14{fill:#1B3241;}
</style>
<g>
	<path class="st0" d="M423.8,319.9c-20,0-36.1,16.2-36.1,36.1s16.2,36.1,36.1,36.1h10v-72.3L423.8,319.9L423.8,319.9z"/>
	<path class="st0" d="M235.1,319.9c-20,0-36.1,16.2-36.1,36.1s16.2,36.1,36.1,36.1h10v-72.3L235.1,319.9L235.1,319.9z"/>
	<path class="st0" d="M423.8,319.9c-20,0-36.1,16.2-36.1,36.1s16.2,36.1,36.1,36.1h10v-72.3L423.8,319.9L423.8,319.9z"/>
	<path class="st0" d="M391.6,349.3c0-20-16.2-36.1-36.1-36.1c-20,0-36.1,16.2-36.1,36.1c0,20,16.2,36.1,36.1,36.1
		C375.4,385.4,391.6,369.2,391.6,349.3z"/>
	<path class="st0" d="M152.4,313.1c-20,0-36.1,16.2-36.1,36.1s16.2,36.1,36.1,36.1h10v-72.3L152.4,313.1L152.4,313.1z"/>
	<path class="st0" d="M198.6,349.3c0-20-16.2-36.1-36.1-36.1s-36.1,16.2-36.1,36.1c0,20,16.2,36.1,36.1,36.1
		S198.6,369.2,198.6,349.3z"/>
	<g>
		<rect x="59.8" y="119.8" class="st1" width="185.4" height="64"/>
		<rect x="171" y="183.7" class="st1" width="148.3" height="148.3"/>
		<rect x="171" y="246.4" class="st2" width="148.3" height="22.8"/>
		<rect x="229.7" y="246.5" class="st3" width="30.9" height="22.8"/>
		<rect x="233.7" y="183.7" class="st2" width="22.8" height="148.3"/>
		<rect x="59.8" y="183.7" class="st4" width="111.2" height="148.3"/>
		<rect x="59.8" y="246.5" class="st3" width="111.2" height="22.8"/>
		<rect x="100.4" y="246.5" class="st5" width="30.9" height="22.8"/>
		<polygon class="st6" points="171,183.9 59.8,183.9 4.2,128.6 115.4,128.6 		"/>
		<rect x="104.4" y="183.7" class="st3" width="22.8" height="148.3"/>
		<polygon class="st5" points="127.2,183.7 104.4,183.7 49.3,128.6 72.1,128.6 		"/>
		<polygon class="st4" points="171,183.7 319.3,183.7 374.9,128.1 226.6,128.1 		"/>
		<polygon class="st3" points="233.7,183.7 256.5,183.7 312.1,128.1 289.4,128.1 		"/>
	</g>
	<path class="st7" d="M504.7,356H171v-24h333.7c1.8,0,3.2,1.4,3.2,3.2v17.7C507.8,354.6,506.4,356,504.7,356z"/>
	<path class="st8" d="M500.7,332H319.3V183.7h90.9c17.7,0,34.3,8.8,44.3,23.5l37.1,54.9c6,8.8,9.2,19.2,9.2,29.9V332z"/>
	<path class="st9" d="M362.8,271.4v-71.1h47.4c12.2,0,23.6,6,30.4,16.2l37.1,54.9L362.8,271.4L362.8,271.4z"/>
	<rect x="319.3" y="183.7" class="st10" width="21.8" height="148.3"/>
	<path class="st0" d="M246.8,313.1c-23.7,0-42.9,19.2-42.9,42.9h85.8C289.7,332.3,270.5,313.1,246.8,313.1z"/>
	<path class="st0" d="M435.5,313.1c-23.7,0-42.9,19.2-42.9,42.9h85.8C478.4,332.3,459.2,313.1,435.5,313.1z"/>
	<path class="st11" d="M281.3,356c0-20-16.2-36.1-36.1-36.1S209,336,209,356s16.2,36.1,36.1,36.1C265.1,392.1,281.3,376,281.3,356z"
		/>
	<ellipse class="st9" cx="245.2" cy="356" rx="17.8" ry="17.8"/>
	<circle class="st11" cx="433.8" cy="356" r="36.1"/>
	<ellipse class="st9" cx="433.8" cy="356" rx="17.8" ry="17.8"/>
	<rect x="155.5" y="305.7" class="st12" width="15.5" height="14.7"/>
	<rect x="171" y="305.7" class="st13" width="15.5" height="14.7"/>
	<rect x="59.8" y="305.7" class="st12" width="15.5" height="14.7"/>
	<g>
		<path class="st12" d="M384.1,285.2h-19.3c-1.1,0-2-0.9-2-2v-5.7h23.3v5.7C386.1,284.3,385.2,285.2,384.1,285.2z"/>
		<path class="st11" d="M384.1,283.2h-19.3c-1.1,0-2-0.9-2-2v-3.8h23.3v3.8C386.1,282.3,385.2,283.2,384.1,283.2z"/>
	</g>
	<path class="st9" d="M486.6,313.1c0-7.8,6.3-14.1,14.1-14.1v28.2C492.9,327.2,486.6,320.9,486.6,313.1z"/>
	<path class="st14" d="M59.8,332H171c3.9,0,7.1,3.2,7.1,7.1v9.8c0,3.9-3.2,7.1-7.1,7.1H59.8c-3.9,0-7.1-3.2-7.1-7.1v-9.8
		C52.6,335.2,55.8,332,59.8,332z"/>
	<path class="st9" d="M158.1,344c0-2.8,2.3-5.1,5.1-5.1c2.8,0,5.1,2.3,5.1,5.1s-2.3,5.1-5.1,5.1C160.4,349.1,158.1,346.8,158.1,344z
		"/>
	<path class="st9" d="M149.3,344c0-1.4,1.1-2.5,2.5-2.5c1.4,0,2.5,1.1,2.5,2.5c0,1.4-1.1,2.5-2.5,2.5
		C150.5,346.5,149.3,345.4,149.3,344z"/>
	<path class="st9" d="M72.6,344c0,2.8-2.3,5.1-5.1,5.1c-2.8,0-5.1-2.3-5.1-5.1c0-2.8,2.3-5.1,5.1-5.1S72.6,341.2,72.6,344z"/>
	<path class="st9" d="M81.4,344c0,1.4-1.1,2.5-2.5,2.5c-1.4,0-2.5-1.1-2.5-2.5c0-1.4,1.1-2.5,2.5-2.5
		C80.3,341.4,81.4,342.6,81.4,344z"/>
</g>
</svg>
