<?xml version="1.0" encoding="utf-8"?>
<!-- Generator: Adobe Illustrator 23.0.1, SVG Export Plug-In . SVG Version: 6.00 Build 0)  -->
<svg version="1.1" id="Camada_1" xmlns="http://www.w3.org/2000/svg" xmlns:xlink="http://www.w3.org/1999/xlink" x="0px" y="0px"
	 viewBox="0 0 1920 506" style="enable-background:new 0 0 1920 506;" xml:space="preserve">
<style type="text/css">
	.st0{fill:#0F222C;}
	.st1{fill:#E8BF7C;}
	.st2{fill:#D0A569;}
	.st3{fill:#AB7A45;}
	.st4{fill:#D0A56B;}
	.st5{fill:#986E3E;}
	.st6{fill:#A87944;}
	.st7{fill:#1D4259;}
	.st8{fill:#D79828;}
	.st9{fill:#F2F2F2;}
	.st10{fill:#D55A15;}
	.st11{fill:#222846;}
	.st12{fill:#CE3836;}
	.st13{fill:#FF524F;}
	.st14{fill:#1B3241;}
	.st15{fill:#FFFFFF;}
</style>
<g>
	<path class="st0" d="M560.8,339.3c-26.3,0-47.7,21.3-47.7,47.7s21.3,47.7,47.7,47.7h13.2v-95.3L560.8,339.3L560.8,339.3z"/>
	<path class="st0" d="M312,339.3c-26.3,0-47.7,21.3-47.7,47.7s21.3,47.7,47.7,47.7h13.2v-95.3L312,339.3L312,339.3z"/>
	<path class="st0" d="M560.8,339.3c-26.3,0-47.7,21.3-47.7,47.7s21.3,47.7,47.7,47.7h13.2v-95.3L560.8,339.3L560.8,339.3z"/>
	<path class="st0" d="M518.3,378.1c0-26.3-21.3-47.7-47.7-47.7S423,351.8,423,378.1s21.3,47.7,47.7,47.7
		C497,425.7,518.3,404.4,518.3,378.1z"/>
	<path class="st0" d="M203.1,330.4c-26.3,0-47.7,21.3-47.7,47.7s21.3,47.7,47.7,47.7h13.2v-95.3L203.1,330.4L203.1,330.4z"/>
	<path class="st0" d="M263.9,378.1c0-26.3-21.3-47.7-47.7-47.7s-47.7,21.3-47.7,47.7s21.3,47.7,47.7,47.7S263.9,404.4,263.9,378.1z"
		/>
	<g>
		<rect x="80.8" y="75.6" class="st1" width="244.4" height="84.4"/>
		<rect x="227.5" y="159.8" class="st1" width="195.5" height="195.5"/>
		<rect x="227.5" y="242.5" class="st2" width="195.5" height="30"/>
		<rect x="304.9" y="242.5" class="st3" width="40.8" height="30"/>
		<rect x="310.2" y="159.8" class="st2" width="30" height="195.5"/>
		<rect x="80.8" y="159.8" class="st4" width="146.6" height="195.5"/>
		<rect x="80.8" y="242.5" class="st3" width="146.6" height="30"/>
		<rect x="134.4" y="242.5" class="st5" width="40.8" height="30"/>
		<polygon class="st6" points="227.5,160 80.8,160 7.5,87.1 154.2,87.1 		"/>
		<rect x="139.7" y="159.8" class="st3" width="30" height="195.5"/>
		<polygon class="st5" points="169.8,159.8 139.7,159.8 67.1,87.1 97.1,87.1 		"/>
		<polygon class="st4" points="227.5,159.8 423,159.8 496.4,86.4 300.8,86.4 		"/>
		<polygon class="st3" points="310.2,159.8 340.3,159.8 413.6,86.4 383.6,86.4 		"/>
	</g>
	<path class="st7" d="M667.5,387h-440v-31.7h440c2.3,0,4.2,1.9,4.2,4.2v23.3C671.7,385.1,669.8,387,667.5,387z"/>
	<path class="st8" d="M662.3,355.3H423V159.8h119.9c23.4,0,45.3,11.6,58.4,31l48.9,72.4c7.9,11.6,12.1,25.4,12.1,39.4V355.3z"/>
	<path class="st9" d="M480.5,275.5v-93.7h62.5c16.1,0,31.1,8,40.1,21.3l48.9,72.4L480.5,275.5L480.5,275.5z"/>
	<rect x="423" y="159.8" class="st10" width="28.8" height="195.5"/>
	<path class="st0" d="M327.5,330.4c-31.2,0-56.5,25.3-56.5,56.5H384C384,355.7,358.7,330.4,327.5,330.4z"/>
	<path class="st0" d="M576.2,330.4c-31.2,0-56.5,25.3-56.5,56.5h113.1C632.8,355.7,607.5,330.4,576.2,330.4z"/>
	<path class="st11" d="M372.9,387c0-26.3-21.3-47.7-47.7-47.7s-47.7,21.3-47.7,47.7s21.3,47.7,47.7,47.7
		C351.6,434.6,372.9,413.3,372.9,387z"/>
	<ellipse class="st9" cx="325.3" cy="387" rx="23.5" ry="23.5"/>
	<circle class="st11" cx="574" cy="387" r="47.7"/>
	<ellipse class="st9" cx="574.1" cy="387" rx="23.5" ry="23.5"/>
	<rect x="207.1" y="320.7" class="st12" width="20.4" height="19.4"/>
	<rect x="227.5" y="320.7" class="st13" width="20.4" height="19.4"/>
	<rect x="80.8" y="320.7" class="st12" width="20.4" height="19.4"/>
	<g>
		<path class="st12" d="M508.5,293.6h-25.4c-1.5,0-2.7-1.2-2.7-2.7v-7.6h30.7v7.6C511.2,292.4,510,293.6,508.5,293.6z"/>
		<path class="st11" d="M508.5,291h-25.4c-1.5,0-2.7-1.2-2.7-2.7v-5h30.7v5C511.2,289.8,510,291,508.5,291z"/>
	</g>
	<path class="st9" d="M643.7,330.4c0-10.2,8.3-18.6,18.6-18.6V349C652,349,643.7,340.7,643.7,330.4z"/>
	<path class="st14" d="M80.8,355.3h146.6c5.2,0,9.4,4.2,9.4,9.4v12.9c0,5.2-4.2,9.4-9.4,9.4H80.8c-5.2,0-9.4-4.2-9.4-9.4v-12.9
		C71.4,359.5,75.7,355.3,80.8,355.3z"/>
	<path class="st9" d="M210.6,371.1c0-3.7,3-6.7,6.7-6.7c3.7,0,6.7,3,6.7,6.7s-3,6.7-6.7,6.7C213.6,377.9,210.6,374.9,210.6,371.1z"
		/>
	<path class="st9" d="M199,371.1c0-1.9,1.5-3.4,3.4-3.4c1.9,0,3.4,1.5,3.4,3.4c0,1.9-1.5,3.4-3.4,3.4S199,373,199,371.1z"/>
	<path class="st9" d="M97.8,371.1c0,3.7-3,6.7-6.7,6.7c-3.7,0-6.7-3-6.7-6.7c0-3.7,3-6.7,6.7-6.7S97.8,367.4,97.8,371.1z"/>
	<path class="st9" d="M109.4,371.1c0,1.9-1.5,3.4-3.4,3.4c-1.9,0-3.4-1.5-3.4-3.4c0-1.9,1.5-3.4,3.4-3.4
		C107.9,367.8,109.4,369.3,109.4,371.1z"/>
</g>
<g>
	<g>
		<path class="st15" d="M769.8,224.9v37h50v26.2h-50v56.9h-34.1V198.8h94.2v26.1H769.8z"/>
		<path class="st15" d="M969,345.1h-30.7c-5.7,0-9.8-2.1-12.2-6.4l-24.3-42.5c-1.1-1.8-2.4-3.1-3.8-4c-1.4-0.8-3.4-1.2-6-1.2h-8.6
			v54.1h-33.9V198.8h47.6c10.6,0,19.6,1.1,27,3.3c7.5,2.2,13.5,5.2,18.3,9.1c4.7,3.9,8.2,8.5,10.3,13.8c2.1,5.3,3.2,11,3.2,17.3
			c0,4.8-0.6,9.2-1.9,13.5c-1.3,4.2-3.2,8.1-5.6,11.7c-2.5,3.6-5.5,6.8-9.2,9.6c-3.7,2.8-7.8,5.1-12.6,6.9c2.2,1.1,4.3,2.6,6.2,4.3
			c1.9,1.7,3.7,3.7,5.2,6.1L969,345.1z M896.9,267.6c4.6,0,8.5-0.6,11.8-1.8c3.2-1.2,5.9-2.8,8-4.9c2.1-2.1,3.6-4.5,4.5-7.3
			s1.4-5.8,1.4-9c0-6.4-2.1-11.4-6.3-15.1c-4.2-3.6-10.7-5.4-19.4-5.4h-13.7v43.4H896.9z"/>
		<path class="st15" d="M1015.5,224.9v34.1h46v25.1h-46V319h60v26.1h-94.2V198.8h94.2v26.1H1015.5z"/>
		<path class="st15" d="M1201.5,225.7h-41.2v119.4h-33.9V225.7h-41.2v-26.9h116.2L1201.5,225.7L1201.5,225.7z"/>
		<path class="st15" d="M1252.8,224.9v34.1h46v25.1h-46V319h60v26.1h-94.2V198.8h94.2v26.1H1252.8z"/>
	</g>
	<g>
		<path class="st15" d="M1431.5,225.8v37h50V289h-50v56.9h-34.1V199.6h94.2v26.1H1431.5z"/>
		<path class="st15" d="M1630,345.9h-26.3c-2.9,0-5.3-0.7-7.1-2.1s-3.2-3.1-4.1-5.3l-8.6-25.5h-55.6l-8.6,25.5
			c-0.7,1.9-2.1,3.6-4,5.1c-1.9,1.5-4.3,2.3-7.1,2.3H1482l56.6-146.2h34.7L1630,345.9z M1576.1,290l-13.6-40c-1-2.5-2.1-5.5-3.2-9
			c-1.1-3.5-2.3-7.2-3.4-11.2c-1,4.1-2.1,7.9-3.2,11.3c-1.1,3.5-2.2,6.5-3.2,9l-13.4,39.9H1576.1z M1602,158.5l-32.4,28.6
			c-0.8,0.7-1.6,1.3-2.3,1.7c-0.7,0.4-1.5,0.7-2.3,0.9c-0.8,0.2-1.7,0.3-2.6,0.4c-0.9,0.1-1.9,0.1-3.1,0.1h-22.7l19-27.1
			c0.8-1.1,1.6-1.9,2.4-2.6c0.8-0.6,1.6-1.1,2.5-1.4c0.9-0.3,1.9-0.5,3.1-0.5s2.5-0.1,4.1-0.1H1602L1602,158.5z"/>
		<path class="st15" d="M1735.3,308.1c0.8,0,1.6,0.1,2.4,0.5c0.8,0.3,1.6,0.8,2.3,1.6l13.4,14.1c-5.9,7.7-13.3,13.5-22.1,17.4
			c-8.9,3.9-19.4,5.9-31.5,5.9c-11.1,0-21.1-1.9-29.9-5.7c-8.8-3.8-16.3-9-22.4-15.7s-10.8-14.5-14.1-23.7c-3.3-9.1-4.9-19-4.9-29.8
			c0-10.9,1.8-20.9,5.3-30.1c3.6-9.1,8.5-17,15-23.6c6.4-6.6,14.1-11.8,23.1-15.5s18.8-5.5,29.6-5.5c5.5,0,10.7,0.5,15.5,1.5
			s9.4,2.3,13.6,4c4.2,1.7,8.1,3.8,11.6,6.2c3.6,2.4,6.7,5,9.4,7.8l-11.4,15.4c-0.7,0.9-1.6,1.8-2.6,2.6s-2.4,1.1-4.2,1.1
			c-1.2,0-2.3-0.3-3.4-0.8c-1.1-0.5-2.2-1.2-3.4-2c-1.2-0.8-2.5-1.6-4-2.5c-1.4-0.9-3.2-1.7-5.1-2.5c-2-0.8-4.3-1.4-6.9-2
			c-2.6-0.5-5.7-0.8-9.3-0.8c-5.6,0-10.8,1-15.4,3.1c-4.7,2.1-8.7,5.1-12.1,9.1c-3.4,4-6,8.9-7.8,14.7s-2.8,12.4-2.8,19.8
			c0,7.5,1,14.1,3.1,20c2,5.8,4.8,10.7,8.3,14.7c3.5,4,7.6,7,12.3,9.1c4.7,2.1,9.7,3.1,15.1,3.1c3.1,0,5.9-0.1,8.4-0.5
			c2.5-0.3,4.9-0.8,7.1-1.5c2.2-0.7,4.3-1.6,6.2-2.8c1.9-1.2,3.9-2.7,5.9-4.5c0.8-0.7,1.7-1.2,2.6-1.7
			C1733.3,308.3,1734.3,308.1,1735.3,308.1z"/>
		<path class="st15" d="M1802.5,345.9h-34.1V199.6h34.1V345.9z"/>
		<path class="st15" d="M1918.9,318.8v27.1h-88.1V199.6h33.9v119.1H1918.9z"/>
	</g>
</g>
</svg>
