<?xml version="1.0" encoding="utf-8"?>
<!-- Generator: Adobe Illustrator 23.0.1, SVG Export Plug-In . SVG Version: 6.00 Build 0)  -->
<svg version="1.1" id="Camada_1" xmlns="http://www.w3.org/2000/svg" xmlns:xlink="http://www.w3.org/1999/xlink" x="0px" y="0px"
	 viewBox="0 0 1920 506" style="enable-background:new 0 0 1920 506;" xml:space="preserve">
<style type="text/css">
	.st0{fill:#0F222C;}
	.st1{fill:#E8BF7C;}
	.st2{fill:#D0A569;}
	.st3{fill:#AB7A45;}
	.st4{fill:#D0A56B;}
	.st5{fill:#986E3E;}
	.st6{fill:#A87944;}
	.st7{fill:#1D4259;}
	.st8{fill:#D79828;}
	.st9{fill:#F2F2F2;}
	.st10{fill:#D55A15;}
	.st11{fill:#222846;}
	.st12{fill:#CE3836;}
	.st13{fill:#FF524F;}
	.st14{fill:#1B3241;}
	.st15{fill:#FFFFFF;}
</style>
<g>
	<g>
		<path class="st0" d="M560.84,339.32c-26.32,0-47.66,21.34-47.66,47.66c0,26.32,21.34,47.66,47.66,47.66h13.21v-95.31H560.84z"/>
		<path class="st0" d="M312.05,339.32c-26.32,0-47.66,21.34-47.66,47.66c0,26.32,21.34,47.66,47.66,47.66h13.21v-95.31H312.05z"/>
		<path class="st0" d="M560.84,339.32c-26.32,0-47.66,21.34-47.66,47.66c0,26.32,21.34,47.66,47.66,47.66h13.21v-95.31H560.84z"/>
		<path class="st0" d="M518.34,378.08c0-26.32-21.34-47.66-47.66-47.66c-26.32,0-47.66,21.34-47.66,47.66
			c0,26.32,21.34,47.66,47.66,47.66C497.01,425.74,518.34,404.4,518.34,378.08z"/>
		<path class="st0" d="M203.05,330.43c-26.32,0-47.66,21.34-47.66,47.66c0,26.32,21.34,47.66,47.66,47.66h13.21v-95.31H203.05z"/>
		<path class="st0" d="M263.92,378.08c0-26.32-21.34-47.66-47.66-47.66c-26.32,0-47.66,21.34-47.66,47.66
			c0,26.32,21.34,47.66,47.66,47.66C242.58,425.74,263.92,404.4,263.92,378.08z"/>
		<g>
			<rect x="80.84" y="75.58" class="st1" width="244.42" height="84.42"/>
			<rect x="227.49" y="159.77" class="st1" width="195.54" height="195.54"/>
			
				<rect x="310.24" y="159.77" transform="matrix(-4.490648e-11 1 -1 -4.490648e-11 582.7992 -67.7242)" class="st2" width="30.04" height="195.54"/>
			<rect x="304.86" y="242.52" class="st3" width="40.8" height="30.04"/>
			<rect x="310.24" y="159.77" class="st2" width="30.04" height="195.54"/>
			<rect x="80.84" y="159.77" class="st4" width="146.65" height="195.54"/>
			
				<rect x="139.15" y="184.21" transform="matrix(-4.484609e-11 1 -1 -4.484609e-11 411.705 103.37)" class="st3" width="30.04" height="146.65"/>
			<rect x="134.36" y="242.52" class="st5" width="40.8" height="30.04"/>
			<polygon class="st6" points="227.49,159.99 80.84,159.99 7.51,87.11 154.17,87.11 			"/>
			
				<rect x="139.74" y="159.77" transform="matrix(-1 -4.487667e-11 4.487667e-11 -1 309.5213 515.0748)" class="st3" width="30.04" height="195.54"/>
			<polygon class="st5" points="169.78,159.77 139.74,159.77 67.08,87.11 97.12,87.11 			"/>
			<polygon class="st4" points="227.49,159.77 423.03,159.77 496.36,86.44 300.82,86.44 			"/>
			<polygon class="st3" points="310.24,159.77 340.28,159.77 413.61,86.44 383.57,86.44 			"/>
		</g>
		<path class="st7" d="M667.47,386.98H227.49v-31.67h439.98c2.32,0,4.2,1.88,4.2,4.2v23.28
			C671.67,385.1,669.79,386.98,667.47,386.98z"/>
		<path class="st8" d="M662.26,355.31H423.03V159.77h119.88c23.4,0,45.27,11.62,58.37,31.01l48.9,72.37
			c7.87,11.65,12.08,25.38,12.08,39.44V355.31z"/>
		<path class="st9" d="M480.45,275.47v-93.7h62.46c16.11,0,31.12,7.97,40.14,21.32l48.9,72.37H480.45z"/>
		<rect x="423.03" y="159.77" class="st10" width="28.81" height="195.54"/>
		<path class="st0" d="M327.46,330.43c-31.23,0-56.55,25.32-56.55,56.55h113.1C384.01,355.74,358.7,330.43,327.46,330.43z"/>
		<path class="st0" d="M576.25,330.43c-31.23,0-56.55,25.32-56.55,56.55h113.1C632.8,355.74,607.48,330.43,576.25,330.43z"/>
		<path class="st11" d="M372.92,386.98c0-26.32-21.34-47.66-47.66-47.66c-26.32,0-47.66,21.34-47.66,47.66
			c0,26.32,21.34,47.66,47.66,47.66C351.58,434.63,372.92,413.3,372.92,386.98z"/>
		
			<ellipse transform="matrix(0.9872 -0.1597 0.1597 0.9872 -57.6128 56.8961)" class="st9" cx="325.26" cy="386.98" rx="23.45" ry="23.45"/>
		<circle class="st11" cx="574.05" cy="386.98" r="47.66"/>
		
			<ellipse transform="matrix(0.9872 -0.1597 0.1597 0.9872 -54.4213 96.6178)" class="st9" cx="574.05" cy="386.98" rx="23.45" ry="23.45"/>
		<rect x="207.07" y="320.7" class="st12" width="20.42" height="19.44"/>
		<rect x="227.49" y="320.7" class="st13" width="20.42" height="19.44"/>
		<rect x="80.84" y="320.7" class="st12" width="20.42" height="19.44"/>
		<g>
			<path class="st12" d="M508.53,293.56h-25.41c-1.47,0-2.66-1.19-2.66-2.66v-7.58h30.74v7.58
				C511.19,292.37,510,293.56,508.53,293.56z"/>
			<path class="st11" d="M508.53,291.03h-25.41c-1.47,0-2.66-1.19-2.66-2.66v-5.05h30.74v5.05
				C511.19,289.83,510,291.03,508.53,291.03z"/>
		</g>
		<path class="st9" d="M643.69,330.43c0-10.25,8.31-18.57,18.57-18.57v37.14C652.01,348.99,643.69,340.68,643.69,330.43z"/>
		<path class="st14" d="M80.84,355.31h146.65c5.19,0,9.41,4.21,9.41,9.4v12.86c0,5.19-4.21,9.41-9.41,9.41H80.84
			c-5.19,0-9.41-4.21-9.41-9.41v-12.86C71.44,359.51,75.65,355.31,80.84,355.31z"/>
		<path class="st9" d="M210.55,371.14c0-3.71,3.01-6.73,6.73-6.73c3.71,0,6.73,3.01,6.73,6.73c0,3.72-3.01,6.73-6.73,6.73
			C213.57,377.87,210.55,374.86,210.55,371.14z"/>
		<path class="st9" d="M198.96,371.14c0-1.86,1.51-3.36,3.36-3.36c1.86,0,3.36,1.51,3.36,3.36c0,1.86-1.51,3.36-3.36,3.36
			C200.47,374.5,198.96,373,198.96,371.14z"/>
		<path class="st9" d="M97.78,371.14c0,3.72-3.01,6.73-6.73,6.73c-3.71,0-6.73-3.01-6.73-6.73c0-3.71,3.01-6.73,6.73-6.73
			C94.77,364.41,97.78,367.43,97.78,371.14z"/>
		<path class="st9" d="M109.37,371.14c0,1.86-1.51,3.36-3.36,3.36c-1.86,0-3.36-1.51-3.36-3.36c0-1.86,1.51-3.36,3.36-3.36
			C107.87,367.78,109.37,369.28,109.37,371.14z"/>
	</g>
	<g>
		<path class="st15" d="M742.76,266.34v37.04h49.99v26.2h-49.99v56.91h-34.13V240.24h94.16v26.1H742.76z"/>
		<path class="st15" d="M942.01,386.49h-30.72c-5.69,0-9.77-2.14-12.25-6.42l-24.29-42.46c-1.14-1.81-2.41-3.13-3.81-3.96
			c-1.41-0.84-3.41-1.25-6.02-1.25h-8.63v54.1h-33.93V240.24h47.58c10.57,0,19.59,1.09,27.05,3.26c7.46,2.18,13.55,5.2,18.27,9.08
			c4.72,3.88,8.15,8.47,10.29,13.75c2.14,5.29,3.21,11.04,3.21,17.27c0,4.75-0.64,9.23-1.91,13.45c-1.27,4.22-3.15,8.11-5.62,11.69
			c-2.48,3.58-5.54,6.78-9.18,9.59c-3.65,2.81-7.85,5.12-12.6,6.93c2.21,1.14,4.28,2.56,6.22,4.27c1.94,1.71,3.68,3.73,5.22,6.07
			L942.01,386.49z M869.94,309c4.62,0,8.55-0.58,11.79-1.76c3.24-1.17,5.91-2.79,7.98-4.87c2.07-2.07,3.58-4.5,4.52-7.28
			c0.94-2.78,1.41-5.77,1.41-8.98c0-6.42-2.09-11.44-6.27-15.06c-4.18-3.61-10.66-5.42-19.42-5.42h-13.65V309H869.94z"/>
		<path class="st15" d="M988.48,266.34v34.13h45.97v25.09h-45.97v34.83h60.03v26.1h-94.16V240.24h94.16v26.1H988.48z"/>
		<path class="st15" d="M1174.48,267.14h-41.16v119.35h-33.93V267.14h-41.16v-26.9h116.24V267.14z"/>
		<path class="st15" d="M1225.77,266.34v34.13h45.97v25.09h-45.97v34.83h60.03v26.1h-94.16V240.24h94.16v26.1H1225.77z"/>
	</g>
	<g>
		<path class="st15" d="M1404.46,267.16v37.04h49.99v26.2h-49.99v56.91h-34.13V241.06h94.16v26.1H1404.46z"/>
		<path class="st15" d="M1603.01,387.31h-26.3c-2.95,0-5.32-0.69-7.13-2.06c-1.81-1.37-3.18-3.13-4.12-5.27l-8.63-25.5h-55.61
			l-8.63,25.5c-0.74,1.87-2.06,3.56-3.97,5.07c-1.91,1.51-4.27,2.26-7.08,2.26h-26.5l56.61-146.25h34.73L1603.01,387.31z
			 M1549.11,331.4l-13.55-40.05c-1-2.54-2.07-5.54-3.21-8.98c-1.14-3.45-2.28-7.18-3.41-11.19c-1,4.08-2.08,7.86-3.21,11.34
			c-1.14,3.48-2.21,6.49-3.21,9.03l-13.45,39.85H1549.11z M1575,199.9l-32.42,28.61c-0.8,0.74-1.57,1.3-2.31,1.71
			c-0.74,0.4-1.51,0.7-2.31,0.9c-0.8,0.2-1.66,0.34-2.56,0.4c-0.9,0.07-1.92,0.1-3.06,0.1h-22.69l18.97-27.1
			c0.8-1.07,1.59-1.92,2.36-2.56c0.77-0.64,1.61-1.1,2.51-1.41c0.9-0.3,1.94-0.48,3.11-0.55c1.17-0.07,2.53-0.1,4.07-0.1H1575z"/>
		<path class="st15" d="M1708.31,349.47c0.8,0,1.61,0.15,2.41,0.45c0.8,0.3,1.57,0.82,2.31,1.56l13.45,14.15
			c-5.89,7.7-13.27,13.5-22.13,17.42c-8.87,3.91-19.36,5.87-31.47,5.87c-11.11,0-21.06-1.89-29.86-5.67
			c-8.8-3.78-16.26-9-22.38-15.66c-6.12-6.66-10.83-14.55-14.1-23.69c-3.28-9.13-4.92-19.05-4.92-29.76
			c0-10.91,1.77-20.93,5.32-30.06c3.55-9.13,8.53-17.01,14.96-23.64c6.42-6.63,14.12-11.78,23.09-15.46
			c8.97-3.68,18.84-5.52,29.61-5.52c5.49,0,10.66,0.49,15.51,1.46c4.85,0.97,9.39,2.31,13.6,4.02c4.22,1.71,8.1,3.76,11.64,6.17
			c3.55,2.41,6.69,5.02,9.44,7.83l-11.44,15.36c-0.74,0.94-1.61,1.79-2.61,2.56c-1,0.77-2.41,1.15-4.22,1.15
			c-1.2,0-2.34-0.27-3.41-0.8c-1.07-0.53-2.21-1.19-3.41-1.96c-1.2-0.77-2.53-1.61-3.96-2.51c-1.44-0.9-3.15-1.74-5.12-2.51
			c-1.97-0.77-4.28-1.42-6.93-1.96c-2.64-0.53-5.74-0.8-9.28-0.8c-5.62,0-10.76,1.04-15.41,3.11c-4.65,2.08-8.67,5.1-12.05,9.08
			c-3.38,3.98-5.99,8.87-7.83,14.66c-1.84,5.79-2.76,12.4-2.76,19.82c0,7.5,1.02,14.15,3.06,19.98c2.04,5.82,4.82,10.72,8.33,14.71
			c3.51,3.98,7.61,7.01,12.3,9.08c4.68,2.07,9.7,3.11,15.06,3.11c3.08,0,5.89-0.15,8.43-0.45c2.54-0.3,4.92-0.8,7.13-1.51
			c2.21-0.7,4.28-1.64,6.22-2.81c1.94-1.17,3.91-2.66,5.92-4.47c0.8-0.67,1.67-1.22,2.61-1.66
			C1706.33,349.68,1707.3,349.47,1708.31,349.47z"/>
		<path class="st15" d="M1775.46,387.31h-34.13V241.06h34.13V387.31z"/>
		<path class="st15" d="M1891.9,360.21v27.1h-88.13V241.06h33.93v119.15H1891.9z"/>
	</g>
</g>
</svg>
