<?xml version="1.0" encoding="utf-8"?>
<!-- Generator: Adobe Illustrator 23.0.4, SVG Export Plug-In . SVG Version: 6.00 Build 0)  -->
<svg version="1.1" id="Camada_1" xmlns="http://www.w3.org/2000/svg" xmlns:xlink="http://www.w3.org/1999/xlink" x="0px" y="0px"
	 viewBox="0 0 768 768" style="enable-background:new 0 0 768 768;" xml:space="preserve">
<style type="text/css">
	.st0{fill:#E8E8E8;}
	.st1{fill:#FFDDA8;}
	.st2{fill:#F9C98A;}
	.st3{fill:#BC7C46;}
	.st4{fill:#DDA866;}
	.st5{fill:#EFEFEF;}
	.st6{fill:#E2AC71;}
</style>
<g>
	<g>
		<polygon class="st0" points="63.85,396.35 388.04,583.55 611.16,454.72 286.97,267.54 		"/>
	</g>
	<g>
		<g>
			<path class="st1" d="M402.02,201.02L107.64,370.98l300.82,173.74l294.24-169.96l0.14-0.07L402.02,201.02z"/>
		</g>
		<g>
			<path class="st2" d="M402.02,205.58l-286.4,165.4l292.87,167.85l286.4-164.15L402.02,205.58z"/>
		</g>
		<polygon class="st3" points="408.46,544.66 408.46,571.87 279.34,497.91 227.05,467.98 107.64,399.57 107.64,370.98 		"/>
		<g>
			<path class="st4" d="M408.49,544.7v27.16l294.22-168.85v-28.25L408.49,544.7z"/>
		</g>
	</g>
	<g>
		<polygon class="st5" points="107.64,359.46 107.64,388.15 226.44,456.78 278.92,486.81 408.47,561.03 408.5,561.02 702.71,392.18 
			702.84,364.2 		"/>
	</g>
	<g>
		<g>
			<path class="st1" d="M402.01,184.36L106.65,354.89l301.82,174.32l295.24-170.53l0.14-0.07L402.01,184.36z"/>
		</g>
		<g>
			<path class="st2" d="M402.01,188.94L114.65,354.89L408.5,523.3l287.37-164.69L402.01,188.94z"/>
		</g>
		<polygon class="st3" points="408.47,529.15 408.47,556.46 278.92,482.24 226.44,452.22 106.65,383.59 106.65,354.89 		"/>
		<g>
			<path class="st6" d="M408.5,529.19v27.25l295.22-169.42v-28.33L408.5,529.19z"/>
		</g>
	</g>
</g>
</svg>
