<?xml version="1.0" encoding="utf-8"?>
<!-- Generator: Adobe Illustrator 23.0.1, SVG Export Plug-In . SVG Version: 6.00 Build 0)  -->
<svg version="1.1" id="Camada_1" xmlns="http://www.w3.org/2000/svg" xmlns:xlink="http://www.w3.org/1999/xlink" x="0px" y="0px"
	 viewBox="0 0 512 177.8" style="enable-background:new 0 0 512 177.8;" xml:space="preserve">
<style type="text/css">
	.st0{fill:#1D1D1D;}
	.st1{fill:#C4C4C4;}
	.st2{fill:#ABABAB;}
	.st3{fill:#838383;}
	.st4{fill:#ACACAC;}
	.st5{fill:#757575;}
	.st6{fill:#818181;}
	.st7{fill:#393939;}
	.st8{fill:#9F9F9F;}
	.st9{fill:#F2F2F2;}
	.st10{fill:#777777;}
	.st11{fill:#292929;}
	.st12{fill:#656565;}
	.st13{fill:#868686;}
	.st14{fill:#2D2D2D;}
	.st15{fill:#FFFFFF;}
</style>
<path class="st0" d="M152.4,111.4c-7,0-12.7,5.7-12.7,12.7c0,7,5.7,12.7,12.7,12.7h3.5v-25.4L152.4,111.4L152.4,111.4z"/>
<path class="st0" d="M86.1,111.4c-7,0-12.7,5.7-12.7,12.7c0,7,5.7,12.7,12.7,12.7h3.5v-25.4L86.1,111.4L86.1,111.4z"/>
<path class="st0" d="M152.4,111.4c-7,0-12.7,5.7-12.7,12.7c0,7,5.7,12.7,12.7,12.7h3.5v-25.4L152.4,111.4L152.4,111.4z"/>
<path class="st0" d="M141,121.7c0-7-5.7-12.7-12.7-12.7c-7,0-12.7,5.7-12.7,12.7s5.7,12.7,12.7,12.7
	C135.4,134.4,141,128.7,141,121.7z"/>
<path class="st0" d="M57,109c-7,0-12.7,5.7-12.7,12.7c0,7,5.7,12.7,12.7,12.7h3.5V109L57,109L57,109z"/>
<path class="st0" d="M73.2,121.7c0-7-5.7-12.7-12.7-12.7s-12.7,5.7-12.7,12.7s5.7,12.7,12.7,12.7S73.2,128.7,73.2,121.7z"/>
<g>
	<rect x="24.5" y="41.1" class="st1" width="65.1" height="22.5"/>
	<rect x="63.5" y="63.5" class="st1" width="52.1" height="52.1"/>
	<rect x="63.5" y="85.6" class="st2" width="52.1" height="8"/>
	<rect x="84.2" y="85.6" class="st3" width="10.9" height="8"/>
	<rect x="85.6" y="63.5" class="st2" width="8" height="52.1"/>
	<rect x="24.5" y="63.5" class="st4" width="39.1" height="52.1"/>
	<rect x="24.5" y="85.6" class="st3" width="39.1" height="8"/>
	<rect x="38.7" y="85.6" class="st5" width="10.9" height="8"/>
	<polygon class="st6" points="63.5,63.6 24.5,63.6 4.9,44.2 44,44.2 	"/>
	<rect x="40.2" y="63.5" class="st3" width="8" height="52.1"/>
	<polygon class="st5" points="48.2,63.5 40.2,63.5 20.8,44.2 28.8,44.2 	"/>
	<polygon class="st4" points="63.5,63.5 115.6,63.5 135.2,44 83.1,44 	"/>
	<polygon class="st3" points="85.6,63.5 93.6,63.5 113.1,44 105.1,44 	"/>
</g>
<path class="st7" d="M180.8,124.1H63.5v-8.4h117.2c0.6,0,1.1,0.5,1.1,1.1v6.2C181.9,123.6,181.4,124.1,180.8,124.1z"/>
<path class="st8" d="M179.4,115.6h-63.8V63.5h31.9c6.2,0,12.1,3.1,15.6,8.3l13,19.3c2.1,3.1,3.2,6.8,3.2,10.5V115.6z"/>
<path class="st9" d="M130.9,94.3v-25h16.6c4.3,0,8.3,2.1,10.7,5.7l13,19.3L130.9,94.3L130.9,94.3z"/>
<rect x="115.6" y="63.5" class="st10" width="7.7" height="52.1"/>
<path class="st0" d="M90.2,109c-8.3,0-15.1,6.7-15.1,15.1h30.1C105.2,115.7,98.5,109,90.2,109z"/>
<path class="st0" d="M156.5,109c-8.3,0-15.1,6.7-15.1,15.1h30.1C171.5,115.7,164.8,109,156.5,109z"/>
<path class="st11" d="M102.3,124.1c0-7-5.7-12.7-12.7-12.7s-12.7,5.7-12.7,12.7c0,7,5.7,12.7,12.7,12.7
	C96.6,136.8,102.3,131.1,102.3,124.1z"/>
<ellipse class="st9" cx="89.6" cy="124.1" rx="6.2" ry="6.2"/>
<circle class="st11" cx="155.9" cy="124.1" r="12.7"/>
<ellipse class="st9" cx="155.9" cy="124.1" rx="6.2" ry="6.2"/>
<rect x="58.1" y="106.4" class="st12" width="5.4" height="5.2"/>
<rect x="63.5" y="106.4" class="st13" width="5.4" height="5.2"/>
<rect x="24.5" y="106.4" class="st12" width="5.4" height="5.2"/>
<g>
	<path class="st12" d="M138.4,99.2h-6.8c-0.4,0-0.7-0.3-0.7-0.7v-2h8.2v2C139.1,98.9,138.8,99.2,138.4,99.2z"/>
	<path class="st11" d="M138.4,98.5h-6.8c-0.4,0-0.7-0.3-0.7-0.7v-1.3h8.2v1.3C139.1,98.2,138.8,98.5,138.4,98.5z"/>
</g>
<path class="st9" d="M174.5,109c0-2.7,2.2-4.9,4.9-4.9v9.9C176.7,113.9,174.5,111.7,174.5,109z"/>
<path class="st14" d="M24.5,115.6h39.1c1.4,0,2.5,1.1,2.5,2.5v3.4c0,1.4-1.1,2.5-2.5,2.5H24.5c-1.4,0-2.5-1.1-2.5-2.5v-3.4
	C22,116.7,23.1,115.6,24.5,115.6z"/>
<path class="st9" d="M59,119.8c0-1,0.8-1.8,1.8-1.8c1,0,1.8,0.8,1.8,1.8s-0.8,1.8-1.8,1.8C59.8,121.6,59,120.8,59,119.8z"/>
<path class="st9" d="M55.9,119.8c0-0.5,0.4-0.9,0.9-0.9c0.5,0,0.9,0.4,0.9,0.9c0,0.5-0.4,0.9-0.9,0.9S55.9,120.3,55.9,119.8z"/>
<path class="st9" d="M29,119.8c0,1-0.8,1.8-1.8,1.8c-1,0-1.8-0.8-1.8-1.8c0-1,0.8-1.8,1.8-1.8C28.2,118.1,29,118.9,29,119.8z"/>
<path class="st9" d="M32.1,119.8c0,0.5-0.4,0.9-0.9,0.9c-0.5,0-0.9-0.4-0.9-0.9c0-0.5,0.4-0.9,0.9-0.9
	C31.7,118.9,32.1,119.3,32.1,119.8z"/>
<g>
	<path class="st15" d="M204.9,81.4v9.9h13.3v7h-13.3v15.2h-9.1v-39h25.1v7H204.9z"/>
	<path class="st15" d="M257.9,113.5h-8.2c-1.5,0-2.6-0.6-3.3-1.7l-6.5-11.3c-0.3-0.5-0.6-0.8-1-1.1c-0.4-0.2-0.9-0.3-1.6-0.3h-2.3
		v14.4h-9v-39h12.7c2.8,0,5.2,0.3,7.2,0.9c2,0.6,3.6,1.4,4.9,2.4c1.3,1,2.2,2.3,2.7,3.7c0.6,1.4,0.9,2.9,0.9,4.6
		c0,1.3-0.2,2.5-0.5,3.6c-0.3,1.1-0.8,2.2-1.5,3.1c-0.7,1-1.5,1.8-2.4,2.6c-1,0.7-2.1,1.4-3.4,1.8c0.6,0.3,1.1,0.7,1.7,1.1
		c0.5,0.5,1,1,1.4,1.6L257.9,113.5z M238.7,92.8c1.2,0,2.3-0.2,3.1-0.5c0.9-0.3,1.6-0.7,2.1-1.3c0.6-0.6,1-1.2,1.2-1.9
		c0.3-0.7,0.4-1.5,0.4-2.4c0-1.7-0.6-3-1.7-4c-1.1-1-2.8-1.4-5.2-1.4h-3.6v11.6H238.7z"/>
	<path class="st15" d="M270.3,81.4v9.1h12.3v6.7h-12.3v9.3h16v7h-25.1v-39h25.1v7H270.3z"/>
	<path class="st15" d="M319.9,81.7h-11v31.8h-9V81.7h-11v-7.2h31L319.9,81.7L319.9,81.7z"/>
	<path class="st15" d="M333.6,81.4v9.1h12.3v6.7h-12.3v9.3h16v7h-25.1v-39h25.1v7H333.6z"/>
	<path class="st15" d="M381.2,81.7v9.9h13.3v7h-13.3v15.2h-9.1v-39h25.1v7H381.2z"/>
	<path class="st15" d="M434.1,113.7h-7c-0.8,0-1.4-0.2-1.9-0.5c-0.5-0.4-0.8-0.8-1.1-1.4l-2.3-6.8H407l-2.3,6.8
		c-0.2,0.5-0.5,0.9-1.1,1.4c-0.5,0.4-1.1,0.6-1.9,0.6h-7.1l15.1-39h9.3L434.1,113.7z M419.7,98.8l-3.6-10.7
		c-0.3-0.7-0.6-1.5-0.9-2.4c-0.3-0.9-0.6-1.9-0.9-3c-0.3,1.1-0.6,2.1-0.9,3c-0.3,0.9-0.6,1.7-0.9,2.4l-3.6,10.6H419.7z M426.6,63.7
		l-8.6,7.6c-0.2,0.2-0.4,0.3-0.6,0.5c-0.2,0.1-0.4,0.2-0.6,0.2s-0.4,0.1-0.7,0.1c-0.2,0-0.5,0-0.8,0h-6l5.1-7.2
		c0.2-0.3,0.4-0.5,0.6-0.7c0.2-0.2,0.4-0.3,0.7-0.4c0.2-0.1,0.5-0.1,0.8-0.1c0.3,0,0.7,0,1.1,0L426.6,63.7L426.6,63.7z"/>
	<path class="st15" d="M462.2,103.6c0.2,0,0.4,0,0.6,0.1c0.2,0.1,0.4,0.2,0.6,0.4l3.6,3.8c-1.6,2.1-3.5,3.6-5.9,4.6
		c-2.4,1-5.2,1.6-8.4,1.6c-3,0-5.6-0.5-8-1.5s-4.3-2.4-6-4.2c-1.6-1.8-2.9-3.9-3.8-6.3c-0.9-2.4-1.3-5.1-1.3-7.9
		c0-2.9,0.5-5.6,1.4-8c0.9-2.4,2.3-4.5,4-6.3c1.7-1.8,3.8-3.1,6.2-4.1c2.4-1,5-1.5,7.9-1.5c1.5,0,2.8,0.1,4.1,0.4
		c1.3,0.3,2.5,0.6,3.6,1.1c1.1,0.5,2.2,1,3.1,1.6c0.9,0.6,1.8,1.3,2.5,2.1l-3,4.1c-0.2,0.3-0.4,0.5-0.7,0.7s-0.6,0.3-1.1,0.3
		c-0.3,0-0.6-0.1-0.9-0.2c-0.3-0.1-0.6-0.3-0.9-0.5c-0.3-0.2-0.7-0.4-1.1-0.7c-0.4-0.2-0.8-0.5-1.4-0.7c-0.5-0.2-1.1-0.4-1.8-0.5
		c-0.7-0.1-1.5-0.2-2.5-0.2c-1.5,0-2.9,0.3-4.1,0.8c-1.2,0.6-2.3,1.4-3.2,2.4c-0.9,1.1-1.6,2.4-2.1,3.9c-0.5,1.5-0.7,3.3-0.7,5.3
		c0,2,0.3,3.8,0.8,5.3c0.5,1.6,1.3,2.9,2.2,3.9c0.9,1.1,2,1.9,3.3,2.4c1.2,0.6,2.6,0.8,4,0.8c0.8,0,1.6,0,2.2-0.1
		c0.7-0.1,1.3-0.2,1.9-0.4c0.6-0.2,1.1-0.4,1.7-0.7c0.5-0.3,1-0.7,1.6-1.2c0.2-0.2,0.4-0.3,0.7-0.4
		C461.6,103.7,461.9,103.6,462.2,103.6z"/>
	<path class="st15" d="M480.1,113.7H471v-39h9.1V113.7z"/>
	<path class="st15" d="M511.1,106.5v7.2h-23.5v-39h9v31.8H511.1z"/>
</g>
</svg>
