<svg xmlns="http://www.w3.org/2000/svg" viewBox="0 0 317.5 351.38"><defs><style>.cls-1{fill:#4e6d7c;}.cls-2{fill:#eaeaea;}.cls-3{fill:#fff;}.cls-4{fill:#f15f24;}.cls-5{fill:#eb9c23;}.cls-6,.cls-9{fill:none;stroke:#414042;stroke-linecap:round;stroke-miterlimit:10;}.cls-6{stroke-width:4.9px;}.cls-7{fill:#a7a9ac;}.cls-8{fill:#221f1f;}.cls-9{stroke-width:4.08px;}.cls-10{fill:#e9c222;}.cls-11{fill:#414042;}</style></defs><title>Asset 4</title><g id="Layer_2" data-name="Layer 2"><g id="Layer_1-2" data-name="Layer 1"><g id="iniciar"><path class="cls-1" d="M158.75,33.88A158.87,158.87,0,0,0,3.23,224.62C18,297,83.57,312,160.28,312c75.77,0,136-16.67,151.53-79.69,2.43-9.91,5.69-27.8,5.69-39.7A158.75,158.75,0,0,0,158.75,33.88Z"/><path class="cls-2" d="M281.43,293.34c.64-.78,1.27-1.55,1.9-2.34l1.53-2c.43-.57.88-1.12,1.31-1.69v0a157.92,157.92,0,0,0,28.67-65.6,15.4,15.4,0,0,0-17.93,5.09,15.74,15.74,0,0,0-1.46,2.37,16.91,16.91,0,0,0-1.74-1.52,16.42,16.42,0,0,0-22.55,23.55,14.15,14.15,0,0,0-8.68,12.9A23.7,23.7,0,0,0,241,277.75a20.17,20.17,0,0,0-9.56-4.76A20.38,20.38,0,0,0,211,281a22.55,22.55,0,0,0-4.12-1.23c-.66-.13-1.31-.23-2-.3a15.53,15.53,0,0,0-19.78-17.08l-14.62-68.63-19,1.22L139.44,263.2,139,263c-5.48-1.67-11.4,1.49-14,7.17-5-.16-9.89,3.43-11.69,9A22.07,22.07,0,0,0,77.49,272a18.58,18.58,0,0,0-8.07-8.42,18.84,18.84,0,0,0-5.27-1.85l.4-.72A19.44,19.44,0,0,0,39.41,234.2a17,17,0,0,0-26.46-8,16.22,16.22,0,0,0-4.74-3.78,16.25,16.25,0,0,0-5.74-1.8,158.06,158.06,0,0,0,31.22,69.72h0l.7.87,1.89,2.33c.51.61,1,1.22,1.53,1.82.24.29.47.58.72.87h0a159,159,0,0,0,66.21,45.67c.28,0,.57,0,.86,0a20.4,20.4,0,0,0,18.21-12.36,23.38,23.38,0,0,0,4.29.29,23.05,23.05,0,0,0,22.09-19.13l2.26-.14a14.3,14.3,0,0,0,3.79,13.74,15.45,15.45,0,0,0-1.29,2.72,16.14,16.14,0,1,0,31,2.36l.17.06a15.47,15.47,0,0,0,16.72-4.11A22.64,22.64,0,0,0,210.2,324c0,.09,0,.17,0,.26a22,22,0,0,0,3.75,17.26,158.94,158.94,0,0,0,63-42.93h0l.92-1.06c.66-.75,1.32-1.51,2-2.27S280.9,294,281.43,293.34Z"/><path class="cls-3" d="M311.81,234.86a16.25,16.25,0,0,0-2.82.46,16.43,16.43,0,0,0-12.38,16.08,14.15,14.15,0,0,0-17.84,11,17.77,17.77,0,0,0-2.94.46,16,16,0,0,0-11.55,19.42,15.7,15.7,0,0,0,2.32,5.12,23.74,23.74,0,0,0-18.28,9.13,20.39,20.39,0,0,0-30-3.56A23.09,23.09,0,0,0,205,288.84,15.52,15.52,0,0,0,182.66,275l-13.89-58.76-14.73.85-11.59,59.16a10.5,10.5,0,0,0-6.67-1.82c-5.71.42-10.09,5.5-10.49,11.73a11.39,11.39,0,0,0-6.42,6A22.09,22.09,0,0,0,83,296.32a15.11,15.11,0,0,0-14.73.59,22.09,22.09,0,0,0-20-29.65A15.17,15.17,0,0,0,27.6,253.12a21.93,21.93,0,0,0-2.51-8A22.18,22.18,0,0,0,5.33,233.52a158.57,158.57,0,0,0,43.76,73.87h0l.52.49.1.08c1.43,1.36,2.9,2.69,4.38,4l.86.76,1.93,1.64,1.07.88,1.93,1.57,1.07.84c1.32,1,2.65,2.05,4,3l.75.55,1.86,1.32.95.67h0a158.31,158.31,0,0,0,41.57,20.54h0l.87.28,1.74.54L114,345c.52.16,1,.31,1.55.45l1.56.43,1.3.35,1.84.47,1,.26,2.14.5.75.17,2.45.53.46.09c.91.19,1.83.36,2.74.53l.2,0a159.11,159.11,0,0,0,28.74,2.61h0c1.09,0,2.18,0,3.27,0l.87,0,2.42-.08.92-.05c.8,0,1.6-.07,2.39-.12l.84-.06c.84-.05,1.67-.12,2.5-.19l.69-.05,2.69-.26.5-.05c1-.11,1.95-.22,2.93-.35l.26,0a158.21,158.21,0,0,0,26.84-5.83h0l.42-.14c1.51-.47,3-1,4.51-1.49.73-.25,1.45-.52,2.17-.78l2.69-1,2.28-.9c1-.38,1.92-.79,2.87-1.19,1.12-.48,2.23-1,3.33-1.46l2.12-1h0a159.11,159.11,0,0,0,54.37-42h0c.26-.3.5-.61.75-.92l.57-.67h0A158.43,158.43,0,0,0,311.81,234.86Z"/><path class="cls-3" d="M259.61,114.59a7.7,7.7,0,0,0-1.74.56c0-.34-.08-.69-.14-1A9.06,9.06,0,0,0,241,111.39a8.08,8.08,0,0,0-13.73,4.21,9.11,9.11,0,0,0-3.25,0,9,9,0,0,0-7,6.85h52.11a8.24,8.24,0,0,0-.15-1.63A7.92,7.92,0,0,0,259.61,114.59Zm-18,7.37.24-.34c.17.21.35.4.53.59C242.14,122.12,241.88,122,241.62,122Z"/><path class="cls-3" d="M92.34,149a6.85,6.85,0,0,0-1.37.44,7.46,7.46,0,0,0-.1-.81,7.07,7.07,0,0,0-13.09-2.13,6.32,6.32,0,0,0-10.73,3.29,7,7,0,0,0-8,5.37H99.7A6.16,6.16,0,0,0,92.34,149Zm-14,5.76.19-.27c.13.16.27.31.41.46A6,6,0,0,0,78.29,154.75Z"/><path class="cls-4" d="M165,250.9c6.28-15.76,20.49-35.67,20.26-44.61s-10.57-21.39-21.93-21.1-21.06,13.08-20.83,22.18S165,250.9,165,250.9Z"/><path class="cls-5" d="M164.66,239.55c5.14-12.88,16.75-29.15,16.56-36.46s-8.64-17.48-17.92-17.24-17.22,10.69-17,18.13S164.66,239.55,164.66,239.55Z"/><path class="cls-3" d="M164.34,227.15c4-9.92,12.91-22.46,12.77-28.09s-6.66-13.47-13.81-13.29-13.27,8.24-13.12,14S164.34,227.15,164.34,227.15Z"/><path class="cls-4" d="M146.18,232.79c6.38-9.31,18.5-20.16,19.65-26s-3.74-15.42-11.15-16.89-15.58,5.42-16.76,11.36S146.18,232.79,146.18,232.79Z"/><path class="cls-5" d="M147.65,225.39c5.21-7.62,15.12-16.48,16.06-21.25s-3.06-12.6-9.12-13.8-12.73,4.43-13.69,9.28S147.65,225.39,147.65,225.39Z"/><path class="cls-3" d="M149.25,217.3c4-5.87,11.65-12.7,12.38-16.37s-2.36-9.71-7-10.64-9.81,3.42-10.55,7.16S149.25,217.3,149.25,217.3Z"/><path class="cls-4" d="M169.13,213.59c0-7.17,2.38-17.22.87-20.68s-7.53-6.7-11.93-4.79-6.18,8.46-4.65,12S169.13,213.59,169.13,213.59Z"/><path class="cls-5" d="M167.22,209.19c0-5.86,1.94-14.07.71-16.9s-6.15-5.48-9.75-3.92-5.05,6.92-3.8,9.8S167.22,209.19,167.22,209.19Z"/><path class="cls-3" d="M165.13,204.38c0-4.51,1.5-10.84.55-13s-4.74-4.22-7.51-3-3.9,5.33-2.93,7.55S165.13,204.38,165.13,204.38Z"/><path class="cls-5" d="M219.66,60.91c-31.7,42-43.38,5.71-60.91,5.84-9.18.07-15.85,37.82-60.91-5.84a60.91,60.91,0,1,1,121.82,0Z"/><path class="cls-5" d="M97.84,60.91c6.68,38,25,42.65,35,82.38,21.74,14.47,20.07,11.13,55.08,2.85,5-36.56,31.7-58.61,31.7-85.23C221.33,21.13,102.85,28.93,97.84,60.91Z"/><path class="cls-6" d="M131.22,72.49s11.55,26.5,15,36.34,3.59,33.31,3.59,33.31"/><path class="cls-6" d="M190.49,72.49S179,99,175.46,108.83s-3.59,33.31-3.59,33.31"/><path class="cls-7" d="M139.49,161.67v18.8c0,5.78,3.75,10.46,8.38,10.46H173c4.62,0,8.37-4.68,8.37-10.46v-18.8Z"/><path class="cls-8" d="M129.05,138.61v30.48a10.47,10.47,0,0,0,10.46,10.47h41.83a10.47,10.47,0,0,0,10.46-10.47V138.61Z"/><path class="cls-9" d="M148.7,82.17c0,4.41-2.72,8-6.08,8s-6.07-3.57-6.07-8,2.72-8,6.07-8S148.7,77.77,148.7,82.17Z"/><path class="cls-9" d="M160.85,82.17c0,4.41-2.71,8-6.08,8s-6.07-3.57-6.07-8,2.72-8,6.08-8S160.85,77.77,160.85,82.17Z"/><path class="cls-9" d="M173,82.17c0,4.41-2.72,8-6.08,8s-6.08-3.57-6.08-8,2.72-8,6.08-8S173,77.77,173,82.17Z"/><path class="cls-9" d="M185.16,82.17c0,4.41-2.72,8-6.07,8s-6.08-3.57-6.08-8,2.72-8,6.08-8S185.16,77.77,185.16,82.17Z"/><path class="cls-10" d="M139.49,11.19c15-11.09,41.84-1.66,51.78,5.56,13.81,10,24,32.18,22.41,46.5S206,85.12,200.4,98.45c-2,4.74,6.84-14.44-3.92-40.3-8-19.3-31.24-24.23-46.64-26C139.07,30.9,124.54,22.22,139.49,11.19Z"/><path class="cls-11" d="M193.92,147.8a1.47,1.47,0,0,1-1.43,1.5H128.06a1.47,1.47,0,0,1-1.43-1.5v-2.62a1.47,1.47,0,0,1,1.43-1.5h64.43a1.47,1.47,0,0,1,1.43,1.51Z"/><path class="cls-11" d="M193.92,156.79a1.47,1.47,0,0,1-1.43,1.51H128.06a1.47,1.47,0,0,1-1.43-1.51v-2.61a1.47,1.47,0,0,1,1.43-1.51h64.43a1.47,1.47,0,0,1,1.43,1.51Z"/><path class="cls-11" d="M194.07,165.79a1.47,1.47,0,0,1-1.43,1.51H128.21a1.47,1.47,0,0,1-1.43-1.51v-2.61a1.47,1.47,0,0,1,1.43-1.51h64.43a1.47,1.47,0,0,1,1.43,1.51Z"/></g></g></g></svg>