<svg xmlns="http://www.w3.org/2000/svg" viewBox="0 0 484.22 261.78"><defs><style>.cls-1{fill:#10222c;}.cls-2{fill:#e8be7b;}.cls-3{fill:#d1a569;}.cls-4{fill:#ab7a45;}.cls-5{fill:#d0a56b;}.cls-6{fill:#986e3e;}.cls-7{fill:#a87944;}.cls-8{fill:#1d4259;}.cls-9{fill:#eb9b22;}.cls-10{fill:#f2f2f3;}.cls-11{fill:#f15e22;}.cls-12{fill:#222846;}.cls-13{fill:#ce3836;}.cls-14{fill:#f05452;}.cls-15{fill:#1a3241;}</style></defs><title>Asset 1</title><g id="Layer_2" data-name="Layer 2"><g id="Layer_1-2" data-name="Layer 1"><g id="fretinho"><path class="cls-1" d="M403.41,192.29a34.75,34.75,0,0,0,0,69.49h9.64V192.29Z"/><path class="cls-1" d="M222,192.29a34.75,34.75,0,1,0,0,69.49h9.63V192.29Z"/><path class="cls-1" d="M403.41,192.29a34.75,34.75,0,0,0,0,69.49h9.64V192.29Z"/><path class="cls-1" d="M372.43,220.55a34.75,34.75,0,1,0-34.74,34.74A34.74,34.74,0,0,0,372.43,220.55Z"/><path class="cls-1" d="M142.56,185.8a34.75,34.75,0,0,0,0,69.49h9.63V185.8Z"/><path class="cls-1" d="M186.94,220.55a34.75,34.75,0,1,0-34.75,34.74A34.75,34.75,0,0,0,186.94,220.55Z"/><rect class="cls-2" x="53.46" width="178.2" height="61.55"/><rect class="cls-2" x="160.38" y="61.38" width="142.56" height="142.56"/><rect class="cls-3" x="220.71" y="61.38" width="21.9" height="142.56" transform="translate(364.32 -99) rotate(90)"/><rect class="cls-4" x="216.79" y="121.71" width="29.74" height="21.9"/><rect class="cls-3" x="220.71" y="61.38" width="21.9" height="142.56"/><rect class="cls-5" x="53.46" y="61.38" width="106.92" height="142.56"/><rect class="cls-4" x="95.97" y="79.2" width="21.9" height="106.92" transform="translate(239.58 25.74) rotate(90)"/><rect class="cls-6" x="92.48" y="121.71" width="29.74" height="21.9"/><polygon class="cls-7" points="160.38 61.55 53.46 61.55 0 8.41 106.92 8.41 160.38 61.55"/><rect class="cls-4" x="96.4" y="61.38" width="21.9" height="142.56" transform="translate(214.71 265.32) rotate(-180)"/><polygon class="cls-6" points="118.3 61.38 96.41 61.38 43.43 8.41 65.33 8.41 118.3 61.38"/><polygon class="cls-5" points="160.38 61.38 302.94 61.38 356.4 7.92 213.84 7.92 160.38 61.38"/><polygon class="cls-4" points="220.71 61.38 242.61 61.38 296.07 7.92 274.17 7.92 220.71 61.38"/><path class="cls-8" d="M160.38,203.94H480a4.2,4.2,0,0,1,4.2,4.2v14.7A4.2,4.2,0,0,1,480,227H160.38a0,0,0,0,1,0,0V203.94A0,0,0,0,1,160.38,203.94Z"/><path class="cls-9" d="M477.36,203.94H302.94V61.38h87.4A51.36,51.36,0,0,1,432.9,84l35.65,52.77a51.33,51.33,0,0,1,8.81,28.75Z"/><path class="cls-10" d="M344.8,145.74V77.43h45.54A35.29,35.29,0,0,1,419.61,93l35.65,52.77Z"/><rect class="cls-11" x="302.94" y="61.38" width="21" height="142.56"/><path class="cls-1" d="M233.27,185.8A41.23,41.23,0,0,0,192,227H274.5A41.23,41.23,0,0,0,233.27,185.8Z"/><path class="cls-1" d="M414.65,185.8A41.23,41.23,0,0,0,373.42,227h82.46A41.23,41.23,0,0,0,414.65,185.8Z"/><path class="cls-12" d="M266.41,227a34.75,34.75,0,1,0-34.75,34.75A34.74,34.74,0,0,0,266.41,227Z"/><circle class="cls-10" cx="231.66" cy="227.03" r="17.1" transform="translate(-33.28 39.9) rotate(-9.19)"/><circle class="cls-12" cx="413.05" cy="227.03" r="34.75"/><circle class="cls-10" cx="413.05" cy="227.03" r="17.1" transform="matrix(0.99, -0.16, 0.16, 0.99, -30.95, 68.86)"/><rect class="cls-13" x="145.49" y="178.72" width="14.89" height="14.17"/><rect class="cls-14" x="160.38" y="178.72" width="14.89" height="14.17"/><rect class="cls-13" x="53.46" y="178.72" width="14.89" height="14.17"/><path class="cls-13" d="M347.47,151.46h17.08a2.66,2.66,0,0,1,2.66,2.66v4.81a0,0,0,0,1,0,0H344.8a0,0,0,0,1,0,0v-4.81A2.66,2.66,0,0,1,347.47,151.46Z" transform="translate(712.02 310.38) rotate(-180)"/><path class="cls-12" d="M347.47,151.46h17.08a2.66,2.66,0,0,1,2.66,2.66v3a0,0,0,0,1,0,0H344.8a0,0,0,0,1,0,0v-3A2.67,2.67,0,0,1,347.47,151.46Z" transform="translate(712.02 308.53) rotate(-180)"/><path class="cls-10" d="M463.82,185.8a13.54,13.54,0,0,1,13.54-13.53v27.07A13.54,13.54,0,0,1,463.82,185.8Z"/><rect class="cls-15" x="46.6" y="203.94" width="120.63" height="23.09" rx="6.86"/><path class="cls-10" d="M148,215.49a4.91,4.91,0,1,1,4.91,4.9A4.91,4.91,0,0,1,148,215.49Z"/><path class="cls-10" d="M139.58,215.49a2.46,2.46,0,1,1,2.45,2.45A2.46,2.46,0,0,1,139.58,215.49Z"/><path class="cls-10" d="M65.81,215.49a4.91,4.91,0,1,1-4.9-4.91A4.9,4.9,0,0,1,65.81,215.49Z"/><path class="cls-10" d="M74.26,215.49A2.45,2.45,0,1,1,71.81,213,2.45,2.45,0,0,1,74.26,215.49Z"/></g></g></g></svg>