<?xml version="1.0" encoding="utf-8"?>
<!-- Generator: Adobe Illustrator 23.0.3, SVG Export Plug-In . SVG Version: 6.00 Build 0)  -->
<svg version="1.1" id="Camada_1" xmlns="http://www.w3.org/2000/svg" xmlns:xlink="http://www.w3.org/1999/xlink" x="0px" y="0px"
	 viewBox="0 0 500 500" style="enable-background:new 0 0 500 500;" xml:space="preserve">
<style type="text/css">
	.st0{fill:#4E6D7C;}
	.st1{fill:#EAEAEA;}
	.st2{fill:#FFFFFF;}
	.st3{fill:#F15F24;}
	.st4{fill:#EB9C23;}
	.st5{fill:none;stroke:#414042;stroke-width:4.9;stroke-linecap:round;stroke-miterlimit:10;}
	.st6{fill:#A7A9AC;}
	.st7{fill:#221F1F;}
	.st8{fill:none;stroke:#414042;stroke-width:4.08;stroke-linecap:round;stroke-miterlimit:10;}
	.st9{fill:#E9C222;}
	.st10{fill:#414042;}
</style>
<title>Asset 4</title>
<g id="Layer_2">
	<g id="Layer_1-2">
		<g id="iniciar">
			<path class="st0" d="M250,108.2c-87.7,0.1-158.8,71.2-158.7,159c0,10.7,1.1,21.3,3.2,31.7c14.8,72.4,80.3,87.4,157,87.4
				c75.8,0,136-16.7,151.5-79.7c2.4-9.9,5.7-27.8,5.7-39.7C408.7,179.2,337.7,108.2,250,108.2z"/>
			<path class="st1" d="M372.7,367.6c0.6-0.8,1.3-1.5,1.9-2.3l1.5-2c0.4-0.6,0.9-1.1,1.3-1.7l0,0c14.5-19.4,24.3-41.8,28.7-65.6
				c-6.4-2.5-13.8-0.4-17.9,5.1c-0.6,0.7-1,1.5-1.5,2.4c-0.5-0.5-1.1-1.1-1.7-1.5c-7.3-5.4-17.5-4-23,3.3
				c-4.5,6.1-4.4,14.4,0.4,20.3c-5.2,2.2-8.6,7.3-8.7,12.9c-9.2,0-17.6,5.3-21.5,13.7c-2.7-2.4-6-4.1-9.6-4.8
				c-7.8-1.5-15.8,1.6-20.4,8c-1.3-0.5-2.7-1-4.1-1.2c-0.7-0.1-1.3-0.2-2-0.3c1.2-8.5-4.7-16.4-13.2-17.6c-2.2-0.3-4.5-0.1-6.6,0.5
				l-14.6-68.6l-19,1.2l-12,68.2l-0.4-0.2c-5.5-1.7-11.4,1.5-14,7.2c-5-0.2-9.9,3.4-11.7,9c-4.7-11.2-17.7-16.5-28.9-11.8
				c-2.6,1.1-4.9,2.6-6.9,4.6c-1.7-3.6-4.5-6.6-8.1-8.4c-1.7-0.9-3.4-1.5-5.3-1.9l0.4-0.7c5-9.5,1.4-21.3-8.1-26.3
				c-5.3-2.8-11.6-3-17-0.5c-3-8.9-12.7-13.6-21.6-10.6c-1.8,0.6-3.4,1.5-4.9,2.6c-1.3-1.5-2.9-2.8-4.7-3.8c-1.8-1-3.7-1.6-5.7-1.8
				c4.5,25.4,15.3,49.4,31.2,69.7l0,0l0.7,0.9l1.9,2.3c0.5,0.6,1,1.2,1.5,1.8c0.2,0.3,0.5,0.6,0.7,0.9l0,0
				c17.8,20.6,40.6,36.4,66.2,45.7c0.3,0,0.6,0,0.9,0c8-0.2,15.1-5,18.2-12.4c1.4,0.2,2.9,0.3,4.3,0.3c11-0.3,20.2-8.3,22.1-19.1
				l2.3-0.1c-1.3,4.9,0.2,10.2,3.8,13.7c-0.5,0.9-0.9,1.8-1.3,2.7c-3,8.4,1.3,17.6,9.7,20.7s17.6-1.3,20.7-9.7
				c1-2.8,1.2-5.8,0.7-8.7l0.2,0.1c5.9,2.1,12.5,0.5,16.7-4.1c2.5,0,5-0.5,7.4-1.3c0,0.1,0,0.2,0,0.3c-1.2,6,0.1,12.3,3.8,17.3
				c24.2-9,45.8-23.7,63-42.9l0,0l0.9-1.1c0.7-0.8,1.3-1.5,2-2.3S372.1,368.3,372.7,367.6z"/>
			<path class="st2" d="M403.1,309.2c-1,0.1-1.9,0.2-2.8,0.5c-7.3,1.9-12.5,8.5-12.4,16.1c-7.5-2.2-15.4,2.2-17.5,9.7
				c-0.1,0.4-0.2,0.9-0.3,1.3c-1,0.1-2,0.2-2.9,0.5c-8.5,2.2-13.7,10.9-11.5,19.4c0.5,1.8,1.2,3.6,2.3,5.1
				c-7.2,0.1-13.9,3.5-18.3,9.1c-6.5-9.2-19.3-11.3-28.4-4.8c-0.5,0.4-1.1,0.8-1.6,1.2c-3.9-2.7-8.6-4.2-13.3-4.1
				c-0.1-8.6-7-15.5-15.6-15.4c-2.3,0-4.6,0.6-6.7,1.6L260,290.5l-14.7,0.9l-11.6,59.2c-2-1.3-4.3-2-6.7-1.8
				c-5.7,0.4-10.1,5.5-10.5,11.7c-2.9,1.1-5.2,3.2-6.4,6c-8.1-9.1-22.1-9.9-31.2-1.7c-1.9,1.7-3.5,3.7-4.7,5.9
				c-4.7-2.4-10.3-2.2-14.7,0.6c4.2-11.5-1.7-24.1-13.2-28.3c-2.2-0.8-4.5-1.2-6.8-1.3c0-8.4-6.8-15.2-15.2-15.2
				c-1.9,0-3.7,0.3-5.5,1c-0.3-2.8-1.2-5.5-2.5-8c-3.9-7.2-11.5-11.7-19.8-11.6c7.5,28.2,22.7,53.7,43.8,73.9l0,0l0.5,0.5l0.1,0.1
				c1.4,1.4,2.9,2.7,4.4,4l0.9,0.8l1.9,1.6l1.1,0.9l1.9,1.6l1.1,0.8c1.3,1,2.7,2,4,3l0.8,0.5l1.9,1.3l0.9,0.7l0,0
				c12.8,8.8,26.8,15.8,41.6,20.5l0,0l0.9,0.3l1.7,0.5l1.3,0.4c0.5,0.2,1,0.3,1.6,0.5l1.6,0.4l1.3,0.4l1.8,0.5l1,0.3l2.1,0.5
				l0.8,0.2l2.4,0.5l0.5,0.1c0.9,0.2,1.8,0.4,2.7,0.5h0.2c9.5,1.7,19.1,2.6,28.7,2.6l0,0c1.1,0,2.2,0,3.3,0h0.9l2.4-0.1l0.9,0
				c0.8,0,1.6-0.1,2.4-0.1l0.8-0.1c0.8,0,1.7-0.1,2.5-0.2l0.7,0l2.7-0.3l0.5,0c1-0.1,1.9-0.2,2.9-0.4h0.3c9.1-1.2,18.1-3.1,26.8-5.8
				l0,0l0.4-0.1c1.5-0.5,3-1,4.5-1.5c0.7-0.2,1.5-0.5,2.2-0.8l2.7-1l2.3-0.9c1-0.4,1.9-0.8,2.9-1.2c1.1-0.5,2.2-1,3.3-1.5l2.1-1l0,0
				c21-9.9,39.5-24.2,54.4-42l0,0c0.3-0.3,0.5-0.6,0.8-0.9l0.6-0.7l0,0C387,350.1,397.2,330.3,403.1,309.2z"/>
			<path class="st2" d="M350.9,188.9c-0.6,0.1-1.2,0.3-1.7,0.6c0-0.3-0.1-0.7-0.1-1c-1-4.9-5.8-8.1-10.7-7.1
				c-2.6,0.5-4.8,2.1-6.1,4.4c-3.1-3.2-8.2-3.3-11.4-0.1c-1.2,1.2-2,2.7-2.3,4.3c-1.1-0.2-2.2-0.2-3.2,0c-3.5,0.7-6.2,3.4-7,6.9
				h52.1c0-0.5,0-1.1-0.1-1.6C359.4,190.8,355.2,188,350.9,188.9C350.9,188.9,350.9,188.9,350.9,188.9z M332.9,196.3l0.2-0.3
				c0.2,0.2,0.4,0.4,0.5,0.6C333.4,196.4,333.1,196.3,332.9,196.3L332.9,196.3z"/>
			<path class="st2" d="M183.6,223.3c-0.5,0.1-0.9,0.2-1.4,0.4c0-0.3-0.1-0.5-0.1-0.8c-0.7-3.8-4.5-6.3-8.3-5.6
				c-2,0.4-3.8,1.7-4.8,3.5c-2.4-2.5-6.4-2.5-8.9-0.1c-0.9,0.9-1.6,2.1-1.8,3.4c-3.7-0.6-7.2,1.7-8,5.4h40.6c0.1-3.4-2.6-6.2-6-6.3
				C184.5,223.2,184,223.2,183.6,223.3z M169.6,229.1l0.2-0.3c0.1,0.2,0.3,0.3,0.4,0.5C170,229.2,169.8,229.1,169.6,229.1
				L169.6,229.1z"/>
			<path class="st3" d="M256.2,325.2c6.3-15.8,20.5-35.7,20.3-44.6s-10.6-21.4-21.9-21.1c-11.4,0.3-21.1,13.1-20.8,22.2
				S256.2,325.2,256.2,325.2z"/>
			<path class="st4" d="M255.9,313.9c5.1-12.9,16.8-29.1,16.6-36.5c-0.2-7.3-8.6-17.5-17.9-17.2c-9.3,0.2-17.2,10.7-17,18.1
				S255.9,313.9,255.9,313.9z"/>
			<path class="st2" d="M255.6,301.5c4-9.9,12.9-22.5,12.8-28.1c-0.1-5.6-6.7-13.5-13.8-13.3c-7.1,0.2-13.3,8.2-13.1,14
				C241.6,279.8,255.6,301.5,255.6,301.5z"/>
			<path class="st3" d="M237.4,307.1c6.4-9.3,18.5-20.2,19.6-26s-3.7-15.4-11.1-16.9s-15.6,5.4-16.8,11.4S237.4,307.1,237.4,307.1z"
				/>
			<path class="st4" d="M238.9,299.7c5.2-7.6,15.1-16.5,16.1-21.2c0.9-4.8-3.1-12.6-9.1-13.8c-6.1-1.2-12.7,4.4-13.7,9.3
				S238.9,299.7,238.9,299.7z"/>
			<path class="st2" d="M240.5,291.6c4-5.9,11.6-12.7,12.4-16.4c0.7-3.7-2.4-9.7-7-10.6s-9.8,3.4-10.6,7.2
				C234.6,275.5,240.5,291.6,240.5,291.6z"/>
			<path class="st3" d="M260.4,287.9c0-7.2,2.4-17.2,0.9-20.7s-7.5-6.7-11.9-4.8s-6.2,8.5-4.6,12C246.2,278,260.4,287.9,260.4,287.9
				z"/>
			<path class="st4" d="M258.5,283.5c0-5.9,1.9-14.1,0.7-16.9c-1.2-2.8-6.2-5.5-9.8-3.9s-5.1,6.9-3.8,9.8S258.5,283.5,258.5,283.5z"
				/>
			<path class="st2" d="M256.4,278.7c0-4.5,1.5-10.8,0.6-13c-1-2.2-4.7-4.2-7.5-3s-3.9,5.3-2.9,7.5S256.4,278.7,256.4,278.7z"/>
			<path class="st4" d="M310.9,135.2c-31.7,42-43.4,5.7-60.9,5.8c-9.2,0.1-15.9,37.8-60.9-5.8c0-33.6,27.3-60.9,60.9-60.9
				S310.9,101.6,310.9,135.2z"/>
			<path class="st4" d="M189.1,135.2c6.7,38,25,42.6,35,82.4c21.7,14.5,20.1,11.1,55.1,2.9c5-36.6,31.7-58.6,31.7-85.2
				C312.6,95.4,194.1,103.2,189.1,135.2z"/>
			<path class="st5" d="M222.5,146.8c0,0,11.6,26.5,15,36.3c3.4,9.8,3.6,33.3,3.6,33.3"/>
			<path class="st5" d="M281.7,146.8c0,0-11.5,26.5-15,36.3c-3.5,9.8-3.6,33.3-3.6,33.3"/>
			<path class="st6" d="M230.7,236v18.8c0,5.8,3.8,10.5,8.4,10.5h25.1c4.6,0,8.4-4.7,8.4-10.5V236H230.7z"/>
			<path class="st7" d="M220.3,212.9v30.5c0,5.8,4.7,10.5,10.5,10.5h41.8c5.8,0,10.5-4.7,10.5-10.5v-30.5H220.3z"/>
			<path class="st8" d="M239.9,156.5c0,4.4-2.7,8-6.1,8s-6.1-3.6-6.1-8c0-4.4,2.7-8,6.1-8S239.9,152.1,239.9,156.5z"/>
			<path class="st8" d="M252.1,156.5c0,4.4-2.7,8-6.1,8s-6.1-3.6-6.1-8c0-4.4,2.7-8,6.1-8S252.1,152.1,252.1,156.5z"/>
			<path class="st8" d="M264.2,156.5c0,4.4-2.7,8-6.1,8c-3.4,0-6.1-3.6-6.1-8c0-4.4,2.7-8,6.1-8
				C261.5,148.5,264.2,152.1,264.2,156.5z"/>
			<path class="st8" d="M276.4,156.5c0,4.4-2.7,8-6.1,8s-6.1-3.6-6.1-8c0-4.4,2.7-8,6.1-8C273.7,148.5,276.4,152.1,276.4,156.5z"/>
			<path class="st9" d="M230.7,85.5c15-11.1,41.8-1.7,51.8,5.6c13.8,10,24,32.2,22.4,46.5s-7.7,21.9-13.3,35.2
				c-2,4.7,6.8-14.4-3.9-40.3c-8-19.3-31.2-24.2-46.6-26C230.3,105.2,215.8,96.5,230.7,85.5z"/>
			<path class="st10" d="M285.2,222.1c0,0.8-0.6,1.5-1.4,1.5h-64.4c-0.8,0-1.4-0.7-1.4-1.5v-2.6c0-0.8,0.6-1.5,1.4-1.5h64.4
				c0.8,0,1.5,0.7,1.4,1.5c0,0,0,0,0,0L285.2,222.1z"/>
			<path class="st10" d="M285.2,231.1c0,0.8-0.6,1.5-1.4,1.5c0,0,0,0,0,0h-64.4c-0.8,0-1.5-0.7-1.4-1.5c0,0,0,0,0,0v-2.6
				c0-0.8,0.6-1.5,1.4-1.5c0,0,0,0,0,0h64.4c0.8,0,1.5,0.7,1.4,1.5c0,0,0,0,0,0L285.2,231.1z"/>
			<path class="st10" d="M285.3,240.1c0,0.8-0.6,1.5-1.4,1.5c0,0,0,0,0,0h-64.4c-0.8,0-1.5-0.7-1.4-1.5c0,0,0,0,0,0v-2.6
				c0-0.8,0.6-1.5,1.4-1.5c0,0,0,0,0,0h64.4c0.8,0,1.5,0.7,1.4,1.5c0,0,0,0,0,0V240.1z"/>
		</g>
	</g>
</g>
</svg>
