<svg xmlns="http://www.w3.org/2000/svg" viewBox="0 0 238.85 326.72"><defs><style>.cls-1{fill:#f5b997;}.cls-2{fill:#3d3d3c;}.cls-3{fill:#585856;}.cls-4,.cls-6{fill:#fff;}.cls-5{fill:#f15e22;}.cls-6{font-size:18px;font-family:Gotham-Medium, Gotham;font-weight:500;}.cls-7{font-size:33.24px;font-family:Gotham-Bold, Gotham;font-weight:700;}.cls-7,.cls-8{fill:#c7c6c5;}.cls-9{fill:#e8bd7a;}.cls-10{fill:#d0a56b;}.cls-11{fill:#f9caac;}</style></defs><title>Asset 3</title><g id="Layer_2" data-name="Layer 2"><g id="Layer_1-2" data-name="Layer 1"><g id="pagamento"><path class="cls-1" d="M236.29,69a19,19,0,0,0-26-7L172.2,84v44l57.13-33A19,19,0,0,0,236.29,69Z"/><polygon class="cls-1" points="165.84 326.72 184.25 258.01 34.55 258.01 34.55 326.72 165.84 326.72"/><g id="PHONE"><path class="cls-2" d="M173.86,295.29H51.94a17.39,17.39,0,0,1-17.39-17.38V39.55A17.39,17.39,0,0,1,51.94,22.16H173.86a17.38,17.38,0,0,1,17.38,17.39V277.91a17.38,17.38,0,0,1-17.38,17.38"/><path class="cls-3" d="M112.9,268.26a8.4,8.4,0,1,1-8.4,8.39,8.4,8.4,0,0,1,8.4-8.39m0-2.77a11.17,11.17,0,1,0,11.17,11.16,11.17,11.17,0,0,0-11.17-11.16Z"/><rect class="cls-4" x="48.54" y="59.44" width="128.73" height="198.58"/><path class="cls-3" d="M126.88,38.67a2.77,2.77,0,1,1,0,5.54h-28a2.77,2.77,0,1,1,0-5.54Z"/><rect class="cls-5" x="62.51" y="178.91" width="100.77" height="46.74" rx="9.97"/><text class="cls-6" transform="translate(80.21 208.23)">PAGAR</text><text class="cls-7" transform="translate(77.42 152.36)">$$$</text><rect class="cls-8" x="56.97" y="91.8" width="111.85" height="11.08"/><rect class="cls-9" x="62.51" y="5.6" width="100.77" height="91.74"/><polygon class="cls-9" points="163.29 7.68 163.29 0 157.69 5.6 152.09 0 146.49 5.6 140.89 0 135.29 5.6 129.7 0 124.1 5.6 118.5 0 112.9 5.6 107.3 0 101.7 5.6 96.11 0 90.51 5.6 84.91 0 79.31 5.6 73.71 0 68.11 5.6 62.51 0 62.51 7.68 163.29 7.68"/><rect class="cls-10" x="132.16" y="44.21" width="17.15" height="2.77"/><rect class="cls-10" x="132.16" y="58.05" width="17.15" height="2.77"/><rect class="cls-10" x="132.16" y="71.9" width="17.15" height="2.77"/><rect class="cls-10" x="76.49" y="44.21" width="39.31" height="2.77"/><rect class="cls-10" x="76.49" y="58.05" width="28.23" height="2.77"/><rect class="cls-10" x="76.49" y="71.9" width="33.77" height="2.77"/></g><path class="cls-11" d="M191.24,162.67a19,19,0,1,1,19-19A19,19,0,0,1,191.24,162.67Z"/><path class="cls-11" d="M191.24,263.73a19,19,0,1,1,19-19A19,19,0,0,1,191.24,263.73Z"/><path class="cls-11" d="M191.24,213.2a19,19,0,1,1,19-19A19,19,0,0,1,191.24,213.2Z"/><path class="cls-11" d="M69.31,326.72V267.19a41.54,41.54,0,0,0-41.55-41.54V326.72Z"/><path class="cls-11" d="M0,124.58V326.72H41.54V154.5a29.92,29.92,0,0,0-29.91-29.92Z"/></g></g></g></svg>