<?xml version="1.0" encoding="utf-8"?>
<!-- Generator: Adobe Illustrator 23.0.3, SVG Export Plug-In . SVG Version: 6.00 Build 0)  -->
<svg version="1.1" id="Camada_1" xmlns="http://www.w3.org/2000/svg" xmlns:xlink="http://www.w3.org/1999/xlink" x="0px" y="0px"
	 viewBox="0 0 500 500" style="enable-background:new 0 0 500 500;" xml:space="preserve">
<style type="text/css">
	.st0{fill:#FFFFFF;}
	.st1{fill:#CFCFD0;}
	.st2{fill:#D1A569;}
	.st3{fill:#AB7A45;}
	.st4{fill:#CE3836;}
	.st5{fill:#1D4259;}
</style>
<title>Asset 2</title>
<g id="Layer_2">
	<g id="Layer_1-2">
		<g id="mapinha">
			<g id="map">
				<polygon class="st0" points="204.1,198.6 128.8,151.3 35.4,298.4 148.4,398.9 				"/>
				<polygon class="st0" points="298.1,169.1 399.5,188.5 464.6,398.9 303.7,353.4 				"/>
				<polygon class="st1" points="205.3,198.6 299.2,169.1 303.7,353.4 148.4,398.9 				"/>
				<polygon class="st2" points="103.1,343.3 159.9,342.1 164.1,339.8 180.3,285.9 177.5,285.9 149.8,256 78.7,256 53.8,298 				"/>
				<polygon class="st3" points="242.1,292.9 164.1,339.8 180.3,285.9 				"/>
				<polygon class="st3" points="163.1,353.6 160.3,353.6 151.2,386.3 302.5,343.3 301.1,298.4 259.5,293.8 				"/>
				<polygon class="st3" points="275.2,284.9 300.1,269.7 300.1,287.5 				"/>
				<polygon class="st3" points="300.1,257.8 257.3,283.7 182.9,276.2 189,256 275.2,209.7 298.7,218.4 				"/>
				<polygon class="st3" points="287.7,203.5 298.1,197.6 298.1,207.5 				"/>
				<polygon class="st3" points="274,198.6 298.1,186.3 298.1,169.1 241.5,186.9 				"/>
				<polygon class="st3" points="261.5,205.2 229.2,190.5 204.1,198.6 192.2,242.5 				"/>
				<polygon class="st2" points="164.1,257 189,256 182.9,276.2 				"/>
				<polygon class="st2" points="154.6,246.7 186.2,246.7 192.2,242.5 204.1,198.6 138.9,157.6 113.6,200 				"/>
				<polygon class="st2" points="140.9,246.7 108,209.7 84.9,246.7 				"/>
				<polygon class="st2" points="114.4,353.4 160.3,353.6 151.2,386.3 				"/>
				<polygon class="st2" points="301.1,298.4 302.5,343.3 446.8,381.7 436.1,348.3 				"/>
				<polygon class="st2" points="300.1,287.5 303.5,288.3 432,335.4 409.2,263.9 304.3,267.3 300.1,269.7 				"/>
				<polygon class="st2" points="403.3,245.1 405.8,253.8 300.1,257.8 298.7,218.4 				"/>
				<polygon class="st2" points="399.5,233.6 384.5,185.7 355.7,179.8 298.1,197.6 298.1,207.5 				"/>
				<polygon class="st2" points="298.1,186.3 333.8,175.4 298.1,169.1 				"/>
			</g>
			<g id="pin">
				<path class="st4" d="M301.8,101.1c17.9-0.2,35.8,14.7,35.6,33.2s-9.5,24.6-19.1,42.9s-16.1,36.1-16.5,43.3
					c-0.6-7.1-9.7-32.4-16.5-42.9c-6.8-10.5-19.5-25.2-19.3-43.3C266.2,116.2,280.5,101.3,301.8,101.1z"/>
				
					<ellipse transform="matrix(0.2298 -0.9732 0.9732 0.2298 101.1305 397.5053)" class="st5" cx="301.7" cy="134.9" rx="15.3" ry="15.3"/>
			</g>
			<g id="pin-2">
				<path class="st4" d="M189.1,224c15.6-0.1,31.3,12.9,31.1,29s-8.4,21.6-16.7,37.6c-8.3,16-14.1,31.6-14.4,37.9
					c-0.5-6.2-8.5-28.3-14.4-37.5s-17-22.1-16.9-37.9S170.4,224.1,189.1,224z"/>
				<circle class="st5" cx="189" cy="253.5" r="13.4"/>
			</g>
		</g>
	</g>
</g>
</svg>
