<?xml version="1.0" encoding="utf-8"?>
<!-- Generator: Adobe Illustrator 23.0.3, SVG Export Plug-In . SVG Version: 6.00 Build 0)  -->
<svg version="1.1" id="Camada_1" xmlns="http://www.w3.org/2000/svg" xmlns:xlink="http://www.w3.org/1999/xlink" x="0px" y="0px"
	 viewBox="0 0 500 500" style="enable-background:new 0 0 500 500;" xml:space="preserve">
<style type="text/css">
	.st0{fill:#F5B997;}
	.st1{fill:#3D3D3C;}
	.st2{fill:#585856;}
	.st3{fill:#FFFFFF;}
	.st4{fill:#F15E22;}
	.st5{font-family:'Gotham-Light';}
	.st6{font-size:18px;}
	.st7{fill:#C7C6C5;}
	.st8{font-family:'Gotham-Bold';}
	.st9{font-size:33.24px;}
	.st10{fill:#E8BD7A;}
	.st11{fill:#D0A56B;}
	.st12{fill:#F9CAAC;}
</style>
<title>Asset 3</title>
<g id="Layer_2">
	<g id="Layer_1-2">
		<g id="pagamento">
			<path class="st0" d="M366.9,155.6c-5.2-9.1-16.8-12.3-25.9-7c0,0,0,0-0.1,0l-38.1,22v44l57.1-33
				C369,176.4,372.1,164.8,366.9,155.6C366.9,155.7,366.9,155.7,366.9,155.6z"/>
			<polygon class="st0" points="296.4,413.4 314.8,344.7 165.1,344.7 165.1,413.4 			"/>
			<g id="PHONE">
				<path class="st1" d="M304.4,381.9H182.5c-9.6,0-17.4-7.8-17.4-17.4V126.2c0-9.6,7.8-17.4,17.4-17.4h121.9
					c9.6,0,17.4,7.8,17.4,17.4c0,0,0,0,0,0v238.4C321.8,374.1,314,381.9,304.4,381.9L304.4,381.9"/>
				<path class="st2" d="M243.5,354.9c4.6,0,8.4,3.8,8.4,8.4c0,4.6-3.8,8.4-8.4,8.4s-8.4-3.8-8.4-8.4c0,0,0,0,0,0
					C235.1,358.7,238.8,354.9,243.5,354.9 M243.5,352.1c-6.2,0-11.2,5-11.2,11.2c0,6.2,5,11.2,11.2,11.2s11.2-5,11.2-11.2
					c0,0,0,0,0,0C254.6,357.1,249.6,352.1,243.5,352.1z"/>
				<rect x="179.1" y="146.1" class="st3" width="128.7" height="198.6"/>
				<path class="st2" d="M257.5,125.3c1.5,0,2.8,1.2,2.8,2.8s-1.2,2.8-2.8,2.8h-28c-1.5,0-2.8-1.2-2.8-2.8s1.2-2.8,2.8-2.8H257.5z"
					/>
				<path class="st4" d="M203.1,265.5h80.8c5.5,0,10,4.5,10,10v26.8c0,5.5-4.5,10-10,10h-80.8c-5.5,0-10-4.5-10-10v-26.8
					C193.1,270,197.5,265.5,203.1,265.5z"/>
				<text transform="matrix(1 0 0 1 210.7815 294.87)" class="st3 st5 st6">PAGAR</text>
				<text transform="matrix(1 0 0 1 207.9914 239)" class="st7 st8 st9">$$$</text>
				<rect x="187.5" y="178.4" class="st7" width="111.9" height="11.1"/>
				<rect x="193.1" y="92.2" class="st10" width="100.8" height="91.7"/>
				<polygon class="st10" points="293.9,94.3 293.9,86.6 288.3,92.2 282.7,86.6 277.1,92.2 271.5,86.6 265.9,92.2 260.3,86.6 
					254.7,92.2 249.1,86.6 243.5,92.2 237.9,86.6 232.3,92.2 226.7,86.6 221.1,92.2 215.5,86.6 209.9,92.2 204.3,86.6 198.7,92.2 
					193.1,86.6 193.1,94.3 				"/>
				<rect x="262.7" y="130.9" class="st11" width="17.1" height="2.8"/>
				<rect x="262.7" y="144.7" class="st11" width="17.1" height="2.8"/>
				<rect x="262.7" y="158.5" class="st11" width="17.1" height="2.8"/>
				<rect x="207.1" y="130.9" class="st11" width="39.3" height="2.8"/>
				<rect x="207.1" y="144.7" class="st11" width="28.2" height="2.8"/>
				<rect x="207.1" y="158.5" class="st11" width="33.8" height="2.8"/>
			</g>
			<path class="st12" d="M321.8,249.3c-10.5,0-19-8.5-19-19s8.5-19,19-19s19,8.5,19,19l0,0C340.8,240.8,332.3,249.3,321.8,249.3z"/>
			<path class="st12" d="M321.8,350.4c-10.5,0-19-8.5-19-19s8.5-19,19-19s19,8.5,19,19S332.3,350.4,321.8,350.4L321.8,350.4z"/>
			<path class="st12" d="M321.8,299.8c-10.5,0-19-8.5-19-19s8.5-19,19-19s19,8.5,19,19l0,0C340.8,291.3,332.3,299.8,321.8,299.8z"/>
			<path class="st12" d="M199.9,413.4v-59.5c0-22.9-18.6-41.5-41.5-41.5c0,0,0,0,0,0v101.1H199.9z"/>
			<path class="st12" d="M130.6,211.2v202.1h41.5V241.1c0-16.5-13.4-29.9-29.9-29.9H130.6z"/>
		</g>
	</g>
</g>
</svg>
