<svg xmlns="http://www.w3.org/2000/svg" viewBox="0 0 429.12 297.86"><defs><style>.cls-1{fill:#fff;}.cls-2{fill:#cfcfd0;}.cls-3{fill:#d1a569;}.cls-4{fill:#ab7a45;}.cls-5{fill:#ce3836;}.cls-6{fill:#1d4259;}</style></defs><title>Asset 2</title><g id="Layer_2" data-name="Layer 2"><g id="Layer_1-2" data-name="Layer 1"><g id="mapinha"><g id="map"><polygon class="cls-1" points="168.7 97.54 93.34 50.27 0 197.35 112.98 297.86 168.7 97.54"/><polygon class="cls-1" points="262.64 68.05 364.06 87.45 429.12 297.86 268.24 252.3 262.64 68.05"/><polygon class="cls-2" points="169.85 97.54 263.8 68.05 268.24 252.3 112.98 297.86 169.85 97.54"/><polygon class="cls-3" points="67.68 242.2 124.45 240.98 128.69 238.76 144.86 184.82 142.03 184.82 114.35 154.92 43.23 154.92 18.39 196.94 67.68 242.2"/><polygon class="cls-4" points="206.68 191.79 128.69 238.76 144.86 184.82 206.68 191.79"/><polygon class="cls-4" points="127.68 252.5 124.86 252.5 115.76 285.23 267.09 242.2 265.67 197.35 224.05 192.7 127.68 252.5"/><polygon class="cls-4" points="239.81 183.81 264.66 168.66 264.66 186.44 239.81 183.81"/><polygon class="cls-4" points="264.66 156.74 221.83 182.6 147.48 175.12 153.54 154.92 239.81 108.65 263.25 117.34 264.66 156.74"/><polygon class="cls-4" points="252.24 102.39 262.64 96.53 262.64 106.43 252.24 102.39"/><polygon class="cls-4" points="238.6 97.54 262.64 85.22 262.64 68.05 206.07 85.82 238.6 97.54"/><polygon class="cls-4" points="226.07 104.16 193.75 89.46 168.7 97.54 156.78 141.38 226.07 104.16"/><polygon class="cls-3" points="128.69 155.93 153.54 154.92 147.48 175.12 128.69 155.93"/><polygon class="cls-3" points="119.2 145.63 150.72 145.63 156.78 141.38 168.7 97.54 103.44 56.53 78.19 98.96 119.2 145.63"/><polygon class="cls-3" points="105.46 145.63 72.53 108.65 49.5 145.63 105.46 145.63"/><polygon class="cls-3" points="78.99 252.3 124.86 252.5 115.76 285.23 78.99 252.3"/><polygon class="cls-3" points="265.67 197.35 267.09 242.2 411.34 280.58 400.63 247.25 265.67 197.35"/><polygon class="cls-3" points="264.66 186.44 268.1 187.24 396.59 234.32 373.76 162.8 268.9 166.23 264.66 168.66 264.66 186.44"/><polygon class="cls-3" points="367.9 144.01 370.32 152.7 264.66 156.74 263.25 117.34 367.9 144.01"/><polygon class="cls-3" points="364.06 132.49 349.11 84.61 320.22 78.75 262.64 96.53 262.64 106.43 364.06 132.49"/><polygon class="cls-3" points="262.64 85.22 298.4 74.31 262.64 68.05 262.64 85.22"/></g><g id="pin"><path class="cls-5" d="M266.36,0c17.89-.17,35.78,14.71,35.58,33.19s-9.54,24.64-19.08,42.93-16.1,36.14-16.5,43.31c-.59-7.14-9.73-32.38-16.49-42.91s-19.48-25.24-19.28-43.33S245.1.2,266.36,0Z"/><circle class="cls-6" cx="266.26" cy="33.79" r="15.3"/></g><g id="pin-2" data-name="pin"><path class="cls-5" d="M153.63,122.89c15.65-.15,31.29,12.86,31.12,29s-8.35,21.56-16.69,37.55S154,221.09,153.63,227.36c-.52-6.25-8.52-28.33-14.43-37.54s-17-22.08-16.86-37.9S135,123.06,153.63,122.89Z"/><circle class="cls-6" cx="153.54" cy="152.44" r="13.39"/></g></g></g></g></svg>