<?xml version="1.0" encoding="utf-8"?>
<!-- Generator: Adobe Illustrator 23.0.4, SVG Export Plug-In . SVG Version: 6.00 Build 0)  -->
<svg version="1.1" id="Camada_1" xmlns="http://www.w3.org/2000/svg" xmlns:xlink="http://www.w3.org/1999/xlink" x="0px" y="0px"
	 viewBox="0 0 768 768" style="enable-background:new 0 0 768 768;" xml:space="preserve">
<style type="text/css">
	.st0{fill:#E8E8E8;}
	.st1{fill:#FFDDA8;}
	.st2{fill:#F9C98A;}
	.st3{fill:#BC7C46;}
	.st4{fill:#DDA866;}
	.st5{fill:#4F2E16;}
	.st6{fill:#A8632F;}
</style>
<g>
	<g>
		<polygon class="st0" points="128.36,511.96 375.54,655.02 620.45,513.75 373.27,370.68 		"/>
	</g>
	<g>
		<g>
			<path class="st1" d="M549.59,176.85l-13.53-7.76l-1.72-0.97l-11.24-6.45l-82.31-47.54L228.91,236.44l82.31,47.55l9.59,5.48
				l1.71,1.03l15.24,8.73l90.87,52.52l211.48-122.32l0.17-0.05L549.59,176.85z"/>
		</g>
		<g>
			<path class="st2" d="M440.79,118.37L236.32,236.45l192.33,109.76l204.24-116.86L440.79,118.37z"/>
		</g>
		<polygon class="st3" points="428.65,351.72 428.41,623.78 337.14,571.69 310.64,556.56 228.91,509.9 228.91,236.45 		"/>
		<g>
			<path class="st4" d="M428.62,351.7l-0.24,272.08l211.99-121.25v-273.1L428.62,351.7z"/>
		</g>
	</g>
	<g>
		<g>
			<g>
				<g>
					<g>
						<polygon class="st5" points="514.97,378.04 512.76,379.3 512.76,341 514.95,339.71 						"/>
					</g>
					<g>
						<polygon class="st5" points="522.87,343.58 521.25,346.22 513.87,341.33 506.46,354.77 504.86,353.97 513.87,337.6 						"/>
					</g>
				</g>
				<g>
					<g>
						<polygon class="st5" points="536.99,365.32 534.81,366.61 534.81,328.26 536.99,327.01 						"/>
					</g>
					<g>
						<polygon class="st5" points="544.9,330.85 543.27,333.52 535.89,328.6 528.5,342.06 526.88,341.27 535.89,324.86 						"/>
					</g>
				</g>
			</g>
			<g>
				<path class="st5" d="M545.42,361.73l-41.09,23.73c-0.61,0.34-1.12,0.06-1.12-0.63c0-0.72,0.51-1.56,1.12-1.91l41.09-23.74
					c0.62-0.34,1.1-0.05,1.1,0.64C546.52,360.52,546.04,361.36,545.42,361.73z"/>
			</g>
			<g>
				<g>
					<path class="st5" d="M545.09,372.1l-40.43,23.33c-4.26,2.45-7.7,0.45-7.7-4.45v-46.68c0-4.9,3.44-10.89,7.7-13.34l40.43-23.35
						c4.24-2.45,7.7-0.45,7.7,4.46v46.67C552.79,363.66,549.33,369.65,545.09,372.1z M504.66,333.52c-3.03,1.74-5.51,6.02-5.51,9.51
						v46.68c0,3.51,2.48,4.93,5.51,3.17l40.43-23.32c3.03-1.77,5.5-6.04,5.49-9.54l0.01-46.68c0-3.51-2.47-4.93-5.5-3.17
						L504.66,333.52z"/>
				</g>
			</g>
		</g>
		<g>
			<g>
				<path class="st5" d="M584.03,342.44c-0.6,0.35-1.09,0.07-1.09-0.62V308.4c0-0.69,0.5-1.54,1.09-1.9
					c0.61-0.35,1.11-0.07,1.11,0.64v33.41C585.15,341.24,584.64,342.11,584.03,342.44z"/>
			</g>
			<g>
				<g>
					<path class="st5" d="M604.25,337.09l-40.43,23.32c-4.24,2.46-7.69,0.47-7.69-4.43V309.3c0-4.9,3.46-10.89,7.69-13.35
						l40.43-23.34c4.26-2.46,7.71-0.45,7.71,4.45v46.68C611.96,328.64,608.51,334.62,604.25,337.09z M563.83,298.48
						c-3.03,1.77-5.49,6.03-5.5,9.54v46.67c0,3.5,2.48,4.93,5.5,3.18l40.43-23.34c3.03-1.75,5.5-6.03,5.5-9.54v-46.66
						c0-3.52-2.48-4.94-5.5-3.17L563.83,298.48z"/>
				</g>
			</g>
			<path class="st5" d="M600.72,308.77c-1.58-6.18-8.44-7.55-16.69-2.8c-8.23,4.75-15.1,14.06-16.68,22.07L600.72,308.77z"/>
			<g>
				<g>
					<path class="st5" d="M578.22,305.1c-0.59,0.35-1.1,0.08-1.1-0.63v-8.15c0-0.71,0.51-1.56,1.1-1.91
						c0.61-0.34,1.12-0.08,1.12,0.63v8.15C579.34,303.89,578.83,304.75,578.22,305.1z"/>
				</g>
				<g>
					<path class="st5" d="M584.03,301.75c-0.6,0.33-1.09,0.05-1.09-0.64v-8.15c0-0.72,0.5-1.56,1.09-1.92
						c0.61-0.35,1.09-0.07,1.09,0.65v8.14C585.13,300.55,584.64,301.4,584.03,301.75z"/>
				</g>
				<g>
					<path class="st5" d="M589.84,298.39c-0.58,0.35-1.1,0.05-1.1-0.65v-8.14c0-0.72,0.52-1.57,1.1-1.9
						c0.62-0.36,1.13-0.08,1.13,0.62v8.15C590.96,297.18,590.48,298.03,589.84,298.39z"/>
				</g>
			</g>
		</g>
		<g>
			<g>
				<g>
					<path class="st5" d="M604.09,411.71l-40.43,23.34c-4.26,2.45-7.7,0.45-7.7-4.46v-46.68c0-4.89,3.43-10.88,7.7-13.35
						l40.76-23.34c4.25-2.44,7.72-0.45,7.72,4.46l-0.35,46.68C611.78,403.27,608.33,409.25,604.09,411.71z M563.65,373.1
						c-3.03,1.77-5.51,6.03-5.48,9.54l-0.03,46.68c0.03,3.51,2.48,4.92,5.51,3.17l40.43-23.34c3.03-1.75,5.48-6.03,5.48-9.52
						l0.35-46.67c0-3.53-2.45-4.95-5.51-3.18L563.65,373.1z"/>
				</g>
			</g>
			<g>
				<g>
					<path class="st5" d="M583.85,410.63c-0.62,0.36-1.09,0.08-1.09-0.61V376.6c0-0.7,0.48-1.54,1.09-1.89
						c0.61-0.36,1.09-0.07,1.09,0.63v33.4C584.94,409.44,584.46,410.29,583.85,410.63z"/>
				</g>
				<g>
					<path class="st5" d="M588.86,407.75l-10.01,5.8c-0.61,0.35-1.11,0.06-1.11-0.65c0-0.69,0.5-1.56,1.11-1.91l10.01-5.78
						c0.63-0.36,1.12-0.08,1.12,0.64C589.98,406.54,589.49,407.41,588.86,407.75z"/>
				</g>
				<path class="st5" d="M594.52,365.48v15.58c0,4.22-2.99,9.36-6.61,11.45l-8.09,4.69c-3.67,2.09-6.61,0.39-6.61-3.84v-15.57
					l4.02-2.32v16.72c0,0.67,0.48,0.98,1.09,0.62c0.59-0.34,1.09-1.22,1.09-1.9v-16.7L594.52,365.48z"/>
			</g>
		</g>
		<g>
			<polygon class="st5" points="514.12,422.59 522.08,427.17 514.14,440.95 			"/>
			<polygon class="st5" points="532.63,408.91 524.87,422.35 517.12,417.86 			"/>
			<polygon class="st5" points="524.87,428.78 533.36,433.71 516.37,443.51 			"/>
			<polygon class="st5" points="535.97,409.58 535.97,428.75 527.65,423.97 			"/>
			<g>
				<polygon class="st5" points="539.25,435.49 509.09,418.08 510.5,415.65 540.66,433.06 				"/>
			</g>
			<g>
				<polygon class="st5" points="510.5,452.1 509.09,451.28 539.25,399.05 540.66,399.86 				"/>
			</g>
			<g>
				<polygon class="st5" points="540.95,429.34 538.97,430.48 538.97,405.26 540.95,404.12 				"/>
			</g>
			<g>
				<polygon class="st5" points="510.79,446.74 508.78,447.89 508.78,422.67 510.79,421.54 				"/>
			</g>
			<g>
				<g>
					<polygon class="st5" points="551.7,411.38 546.8,414.2 546.8,412.47 551.7,409.66 					"/>
				</g>
				<g>
					<polygon class="st5" points="547.88,408.44 541.49,416.42 547.88,416.99 					"/>
				</g>
			</g>
			<g>
				<g>
					<polygon class="st5" points="503.3,439.31 498.41,442.13 498.41,440.43 503.3,437.59 					"/>
				</g>
				<g>
					<polygon class="st5" points="502.24,443.35 508.63,435.38 502.24,434.81 					"/>
				</g>
			</g>
			<g>
				<g>
					<path class="st5" d="M545.75,446.06l-41.77,24.11c-3.82,2.21-6.93,0.41-6.92-4l-0.02-48.24c0-4.41,3.12-9.78,6.93-12
						l41.79-24.11c3.79-2.21,6.91-0.4,6.91,3.99v48.26C552.68,438.47,549.59,443.85,545.75,446.06z M503.98,408.22
						c-2.72,1.59-4.97,5.43-4.97,8.58l0.03,48.24c0,3.15,2.21,4.43,4.94,2.86l41.79-24.11c2.72-1.59,4.94-5.42,4.94-8.57v-48.25
						c0-3.16-2.21-4.44-4.96-2.85L503.98,408.22z"/>
				</g>
			</g>
		</g>
	</g>
	<g>
		<path class="st5" d="M282.58,328.03c0,5.48,3.86,12.16,8.6,14.89l47.84,27.62c4.75,2.74,8.6,0.52,8.6-4.96l0,0
			c0-5.49-3.86-12.15-8.6-14.89l-47.84-27.62C286.44,320.33,282.59,322.56,282.58,328.03L282.58,328.03z"/>
		<path class="st4" d="M282.58,328.04c0,5.48,3.87,12.16,8.6,14.89l47.83,27.62c3.4,1.97,6.34,1.39,7.71-1.11
			c-1.53,0.83-3.61,0.66-5.92-0.67l-47.85-27.62c-4.74-2.73-8.59-9.4-8.59-14.89c0-1.57,0.3-2.87,0.87-3.86
			C283.61,323.25,282.58,325.22,282.58,328.04z"/>
	</g>
	<g>
		<polygon class="st3" points="536.06,169.09 322.53,290.5 320.81,289.47 534.34,168.12 		"/>
	</g>
	<g>
		<polygon class="st6" points="425.33,351.69 425.33,353.57 322.53,295.18 320.81,294.21 231.08,243.24 231.08,241.3 320.81,292.27 
			322.53,293.24 		"/>
	</g>
	<g>
		<polygon class="st6" points="322.53,290.5 322.53,295.18 320.81,294.21 320.81,289.47 		"/>
	</g>
</g>
</svg>
