<?xml version="1.0" encoding="utf-8"?>
<!-- Generator: Adobe Illustrator 23.0.4, SVG Export Plug-In . SVG Version: 6.00 Build 0)  -->
<svg version="1.1" id="Camada_1" xmlns="http://www.w3.org/2000/svg" xmlns:xlink="http://www.w3.org/1999/xlink" x="0px" y="0px"
	 viewBox="0 0 768 768" style="enable-background:new 0 0 768 768;" xml:space="preserve">
<style type="text/css">
	.st0{fill:#E8E8E8;}
	.st1{fill:#FFDDA8;}
	.st2{fill:#DDA866;}
	.st3{fill:#AA6838;}
	.st4{fill:#BC7C46;}
	.st5{fill:#EDC893;}
	.st6{fill:#4F2E16;}
	.st7{fill:#C68B51;}
</style>
<g>
	<g>
		<polygon class="st0" points="64,522.17 330.06,675.78 513.16,570.06 247.11,416.45 		"/>
	</g>
	<g>
		<path class="st1" d="M507.49,258.22l-37.23-21.49l-84.98-49.07L175.4,308.85l85.11,49.17l37.09,21.42l92.28,53.28l209.78-121.17
			l0.09-0.06L507.49,258.22z"/>
	</g>
	<g>
		<path class="st2" d="M385.28,190.93L181.09,308.85L389.9,428.53l204.18-117.04L385.28,190.93z"/>
	</g>
	<g>
		<path class="st3" d="M385.28,190.93v212.69l25.38,13.19l183.42-105.31L385.28,190.93z"/>
	</g>
	<polygon class="st4" points="389.88,432.67 389.88,641.38 297.81,588.64 260.52,567.31 175.4,518.53 175.4,308.85 260.52,358.02 
		297.81,379.49 	"/>
	<g>
		<path class="st2" d="M389.9,432.71v208.66L599.67,521V311.55L389.9,432.71z"/>
	</g>
	<polygon class="st4" points="381.86,189.15 302.47,95.37 96.01,211.55 96.01,216.27 175.4,308.85 179.73,309.28 381.92,192.66 	"/>
	<g>
		<path class="st5" d="M96.01,211.64l83.72,97.64l205.54-118.45l-0.07-3.51l-79.76-95.11L96.01,211.64z"/>
	</g>
	<polygon class="st4" points="490.63,98.14 388.65,191.16 594.08,312.14 599.94,311.43 700.57,218.35 699.04,214.97 493.68,96.29 	
		"/>
	<g>
		<path class="st5" d="M594.08,312.14l104.95-97.17L490.38,94.25l-3.06,1.84l-102.96,94.06L594.08,312.14z"/>
	</g>
	<g>
		<g>
			<g>
				<g>
					<polygon class="st6" points="417.98,593.76 416.49,594.62 416.49,568.92 417.98,568.07 					"/>
				</g>
				<g>
					<polygon class="st6" points="423.24,570.66 422.2,572.45 417.24,569.15 412.29,578.18 411.2,577.63 417.24,566.65 					"/>
				</g>
			</g>
			<g>
				<g>
					<polygon class="st6" points="432.75,585.23 431.27,586.1 431.27,560.41 432.75,559.55 					"/>
				</g>
				<g>
					<polygon class="st6" points="438.05,562.14 436.94,563.93 432.03,560.62 427.05,569.64 425.95,569.11 432.03,558.12 					"/>
				</g>
			</g>
		</g>
		<g>
			<path class="st6" d="M438.42,582.82l-27.59,15.92c-0.4,0.23-0.73,0.05-0.73-0.43c0-0.46,0.33-1.04,0.73-1.27l27.59-15.92
				c0.38-0.24,0.71-0.05,0.71,0.43C439.13,582.01,438.8,582.59,438.42,582.82z"/>
		</g>
		<g>
			<g>
				<path class="st6" d="M438.18,589.78l-27.09,15.65c-2.87,1.65-5.19,0.31-5.19-2.99v-31.28c0-3.3,2.32-7.32,5.19-8.96l27.09-15.65
					c2.83-1.64,5.15-0.31,5.15,2.99v31.3C443.33,584.13,441.01,588.14,438.18,589.78z M411.08,563.92c-2.04,1.18-3.7,4.04-3.7,6.4
					v31.28c0,2.37,1.66,3.31,3.7,2.14l27.09-15.65c2.02-1.17,3.69-4.04,3.66-6.39l0.03-31.28c0-2.36-1.67-3.32-3.69-2.15
					L411.08,563.92z"/>
			</g>
		</g>
	</g>
	<g>
		<g>
			<g>
				<path class="st6" d="M481.48,564.66l-27.1,15.65c-2.85,1.65-5.16,0.3-5.16-2.98v-31.29c0-3.29,2.31-7.31,5.16-8.97l27.1-15.63
					c2.85-1.65,5.14-0.31,5.14,2.97v31.3C486.62,559.01,484.33,563.02,481.48,564.66z M454.38,538.8c-2.06,1.16-3.69,4.04-3.69,6.39
					v31.3c0,2.34,1.63,3.3,3.69,2.14l27.1-15.65c2.01-1.17,3.69-4.04,3.69-6.41v-31.29c0-2.34-1.68-3.31-3.69-2.13L454.38,538.8z"/>
			</g>
		</g>
		<g>
			<g>
				<path class="st6" d="M467.93,563.97c-0.43,0.23-0.77,0.05-0.77-0.43v-22.39c0-0.47,0.34-1.05,0.77-1.29
					c0.39-0.23,0.72-0.04,0.72,0.42v22.42C468.65,563.16,468.32,563.72,467.93,563.97z"/>
			</g>
			<g>
				<path class="st6" d="M471.26,562.03l-6.7,3.87c-0.4,0.24-0.75,0.05-0.75-0.42c0-0.47,0.33-1.04,0.75-1.28l6.7-3.88
					c0.41-0.23,0.74-0.04,0.74,0.43C472.01,561.21,471.67,561.77,471.26,562.03z"/>
			</g>
			<path class="st6" d="M475.06,533.67v10.47c0.03,2.82-1.97,6.27-4.42,7.68l-5.42,3.11c-2.44,1.43-4.41,0.28-4.41-2.55v-10.47
				l2.68-1.54v11.2c0,0.46,0.33,0.66,0.73,0.43c0.4-0.23,0.76-0.81,0.76-1.28v-11.21L475.06,533.67z"/>
		</g>
	</g>
	<g>
		<path class="st7" d="M385.28,402.15l-20.47,11.83l25.38,14.55l20.47-11.73L385.28,402.15z"/>
	</g>
	<polygon class="st2" points="69.2,277.09 180.06,309.6 389.9,428.53 389.85,432.45 277.96,404.81 69.2,280.82 	"/>
	<g>
		<path class="st5" d="M180.48,308.85L69.2,277.09L277.98,401l111.92,27.52L180.48,308.85z"/>
	</g>
	<g>
		<path class="st4" d="M596.87,314.88L389.9,428.53l0.04,4.34l105.2,25.68L704,339.54v-3.52L596.87,314.88z"/>
	</g>
	<g>
		<path class="st5" d="M594.08,311.49L389.9,428.53l105.24,26.46L704,336.01l-104.24-24.52H594.08z"/>
	</g>
</g>
</svg>
