<?xml version="1.0" encoding="utf-8"?>
<!-- Generator: Adobe Illustrator 23.0.3, SVG Export Plug-In . SVG Version: 6.00 Build 0)  -->
<svg version="1.1" id="Camada_1" xmlns="http://www.w3.org/2000/svg" xmlns:xlink="http://www.w3.org/1999/xlink" x="0px" y="0px"
	 viewBox="0 0 500 500" style="enable-background:new 0 0 500 500;" xml:space="preserve">
<style type="text/css">
	.st0{fill:#10222C;}
	.st1{fill:#E8BE7B;}
	.st2{fill:#D1A569;}
	.st3{fill:#AB7A45;}
	.st4{fill:#D0A56B;}
	.st5{fill:#986E3E;}
	.st6{fill:#A87944;}
	.st7{fill:#1D4259;}
	.st8{fill:#EB9B22;}
	.st9{fill:#F2F2F3;}
	.st10{fill:#F15E22;}
	.st11{fill:#222846;}
	.st12{fill:#CE3836;}
	.st13{fill:#F05452;}
	.st14{fill:#1A3241;}
</style>
<title>Asset 1</title>
<g id="Layer_2">
	<g id="Layer_1-2">
		<g id="fretinho">
			<path class="st0" d="M411.3,311.4c-19.2,0.3-34.5,16.1-34.2,35.3c0.3,18.7,15.4,33.8,34.2,34.2h9.6v-69.5H411.3z"/>
			<path class="st0" d="M229.9,311.4c-19.2-0.3-35,15-35.3,34.2c-0.3,19.2,15,35,34.2,35.3c0.4,0,0.8,0,1.2,0h9.6v-69.5H229.9z"/>
			<path class="st0" d="M411.3,311.4c-19.2,0.3-34.5,16.1-34.2,35.3c0.3,18.7,15.4,33.8,34.2,34.2h9.6v-69.5H411.3z"/>
			<path class="st0" d="M380.3,339.7c0-19.2-15.5-34.8-34.7-34.8c-19.2,0-34.8,15.5-34.8,34.7s15.5,34.8,34.7,34.8c0,0,0,0,0,0
				C364.8,374.4,380.3,358.8,380.3,339.7z"/>
			<path class="st0" d="M150.5,304.9c-19.2,0.3-34.5,16.1-34.2,35.3c0.3,18.7,15.4,33.8,34.2,34.2h9.6v-69.5H150.5z"/>
			<path class="st0" d="M194.8,339.7c0-19.2-15.5-34.8-34.7-34.8s-34.8,15.5-34.8,34.7c0,19.2,15.5,34.8,34.7,34.8c0,0,0,0,0,0
				C179.3,374.4,194.8,358.8,194.8,339.7z"/>
			<rect x="61.4" y="119.1" class="st1" width="178.2" height="61.5"/>
			<rect x="168.3" y="180.5" class="st1" width="142.6" height="142.6"/>
			<rect x="168.3" y="240.8" class="st2" width="142.6" height="21.9"/>
			<rect x="224.7" y="240.8" class="st3" width="29.7" height="21.9"/>
			<rect x="228.6" y="180.5" class="st2" width="21.9" height="142.6"/>
			<rect x="61.4" y="180.5" class="st4" width="106.9" height="142.6"/>
			<rect x="61.4" y="240.8" class="st3" width="106.9" height="21.9"/>
			<rect x="100.4" y="240.8" class="st5" width="29.7" height="21.9"/>
			<polygon class="st6" points="168.3,180.7 61.4,180.7 7.9,127.5 114.8,127.5 			"/>
			<rect x="104.3" y="180.5" class="st3" width="21.9" height="142.6"/>
			<polygon class="st5" points="126.2,180.5 104.3,180.5 51.3,127.5 73.2,127.5 			"/>
			<polygon class="st4" points="168.3,180.5 310.8,180.5 364.3,127 221.7,127 			"/>
			<polygon class="st3" points="228.6,180.5 250.5,180.5 304,127 282.1,127 			"/>
			<path class="st7" d="M168.3,323h319.6c2.3,0,4.2,1.9,4.2,4.2c0,0,0,0,0,0v14.7c0,2.3-1.9,4.2-4.2,4.2H168.3l0,0V323L168.3,323z"
				/>
			<path class="st8" d="M485.3,323H310.8V180.5h87.4c17.1,0,33,8.5,42.6,22.6l35.6,52.8c5.7,8.5,8.8,18.5,8.8,28.8V323z"/>
			<path class="st9" d="M352.7,264.8v-68.3h45.5c11.7,0,22.7,5.8,29.3,15.6l35.6,52.8L352.7,264.8z"/>
			<rect x="310.8" y="180.5" class="st10" width="21" height="142.6"/>
			<path class="st0" d="M241.2,304.9c-22.8,0-41.2,18.4-41.3,41.2c0,0,0,0,0,0h82.5C282.4,323.3,263.9,304.9,241.2,304.9z"/>
			<path class="st0" d="M422.5,304.9c-22.8,0-41.2,18.4-41.2,41.2h82.5C463.8,323.3,445.3,304.9,422.5,304.9z"/>
			<path class="st11" d="M274.3,346.1c0-19.2-15.6-34.8-34.8-34.8s-34.8,15.6-34.8,34.8s15.6,34.8,34.8,34.8l0,0
				C258.7,380.9,274.3,365.3,274.3,346.1C274.3,346.1,274.3,346.1,274.3,346.1z"/>
			<circle class="st9" cx="239.6" cy="346.1" r="17.1"/>
			<circle class="st11" cx="420.9" cy="346.1" r="34.8"/>
			<circle class="st9" cx="422.2" cy="346.6" r="17.1"/>
			<rect x="153.4" y="297.8" class="st12" width="14.9" height="14.2"/>
			<rect x="168.3" y="297.8" class="st13" width="14.9" height="14.2"/>
			<rect x="61.4" y="297.8" class="st12" width="14.9" height="14.2"/>
			<path class="st12" d="M372.5,278h-17.1c-1.5,0-2.7-1.2-2.7-2.7l0,0v-4.8l0,0h22.4l0,0v4.8C375.1,276.8,373.9,278,372.5,278
				C372.5,278,372.5,278,372.5,278z"/>
			<path class="st11" d="M372.5,276.2h-17.1c-1.5,0-2.7-1.2-2.7-2.7l0,0v-3l0,0h22.4l0,0v3C375.1,275,373.9,276.2,372.5,276.2z"/>
			<path class="st9" d="M471.7,304.9c0-7.5,6.1-13.5,13.5-13.5v27.1C477.8,318.4,471.7,312.4,471.7,304.9L471.7,304.9z"/>
			<path class="st14" d="M61.4,323h106.9c3.8,0,6.9,3.1,6.9,6.9v9.4c0,3.8-3.1,6.9-6.9,6.9H61.4c-3.8,0-6.9-3.1-6.9-6.9v-9.4
				C54.5,326.1,57.6,323,61.4,323z"/>
			<path class="st9" d="M155.9,334.6c0-2.7,2.2-4.9,4.9-4.9c2.7,0,4.9,2.2,4.9,4.9c0,2.7-2.2,4.9-4.9,4.9c0,0,0,0,0,0
				C158.1,339.5,155.9,337.3,155.9,334.6z"/>
			<path class="st9" d="M147.5,334.6c0-1.4,1.1-2.5,2.4-2.5c1.4,0,2.5,1.1,2.5,2.4c0,1.4-1.1,2.5-2.4,2.5c0,0,0,0,0,0
				C148.6,337,147.5,335.9,147.5,334.6z"/>
			<path class="st9" d="M73.7,334.6c0,2.7-2.2,4.9-4.9,4.9c-2.7,0-4.9-2.2-4.9-4.9c0-2.7,2.2-4.9,4.9-4.9c0,0,0,0,0,0
				C71.5,329.7,73.7,331.9,73.7,334.6C73.7,334.6,73.7,334.6,73.7,334.6z"/>
			<path class="st9" d="M82.2,334.6c0,1.4-1.1,2.4-2.5,2.4c-1.4,0-2.4-1.1-2.4-2.5c0-1.3,1.1-2.4,2.4-2.4
				C81.1,332.1,82.2,333.2,82.2,334.6C82.2,334.6,82.2,334.6,82.2,334.6z"/>
		</g>
	</g>
</g>
</svg>
